<svg width="290" height="290" viewBox="0 0 290 290" fill="none" xmlns="http://www.w3.org/2000/svg">
<g clip-path="url(#clip0_144_5802)">
<path d="M136.994 65.2802L163.992 67.4239C200.608 70.3291 228.183 102.664 225.271 139.274L223.748 158.446C223.748 158.446 222.327 176.351 222.321 176.358C220.548 198.723 207.18 219.053 187.484 229.765C138.299 256.514 57.2084 226.553 62.1998 163.649L63.6268 145.737L65.1498 126.565C68.0551 89.9491 100.384 62.3685 136.994 65.2802Z" fill="#77DBCE"/>
<path d="M137.992 52.6097C182.665 52.6673 230.422 74.4438 226.276 126.661L224.752 145.833L224.017 155.093C217.47 162.267 188.098 191.14 142.779 187.543C96.4995 183.87 69.2261 148.227 64.0171 140.804L64.6251 133.131L66.1481 113.959C69.1301 76.3955 101.152 52.7696 137.243 52.6161C137.493 52.6097 137.742 52.6161 137.998 52.6161L137.992 52.6097Z" fill="#E4F4F1"/>
<path d="M139.944 60.3975C178.889 60.4487 220.516 79.4352 216.901 124.953L215.57 141.667L214.93 149.743C209.215 155.995 183.618 181.17 144.11 178.034C103.769 174.835 79.9895 143.76 75.4461 137.284L75.9772 130.597L77.3083 113.882C79.9064 81.1309 107.82 60.5383 139.291 60.4103C139.509 60.4103 139.726 60.4103 139.944 60.4103L139.944 60.3975Z" fill="#D1EDE7"/>
<path d="M138.869 68.3198C138.696 70.5404 143.342 72.7161 149.267 73.1896C155.186 73.6568 160.12 72.2426 160.299 70.0284C160.479 67.8143 155.82 65.6258 149.901 65.1586C143.981 64.6915 139.048 66.1057 138.869 68.3198Z" fill="#AFD9D0"/>
<rect x="91.282" y="97.5065" width="114" height="42" rx="10" transform="rotate(5.09777 91.282 97.5065)" fill="#5EC7B9"/>
<path d="M143.187 117.012L142.763 121.765L144.52 121.921L144.392 123.351L142.636 123.195L142.084 129.377L140.341 129.222L141.444 116.857L143.187 117.012ZM132.48 125.02C135.546 123.811 137.302 121.978 137.875 119.242L133.742 118.874L133.869 117.457L139.765 117.983C139.421 121.686 137.691 124.764 133.342 126.442L132.48 125.02ZM154.96 118.062L154.704 120.936L156.46 121.092L156.332 122.536L154.575 122.379L154.37 124.681L156.126 124.837L155.998 126.281L154.241 126.124L153.857 130.427L152.087 130.269L153.19 117.904L154.96 118.062ZM144.171 125.912C146.273 125.201 147.421 123.175 147.601 121.318L147.643 120.841L145.083 120.613L145.207 119.224L147.753 119.451L147.909 117.708L149.652 117.863L149.497 119.606L152.016 119.831L151.892 121.22L149.359 120.994L149.317 121.471C149.159 123.234 149.894 125.304 151.786 126.413L150.702 127.634C149.428 126.916 148.612 125.67 148.218 124.242C147.547 125.685 146.462 126.851 145.004 127.345L144.171 125.912ZM170.531 126.932L170.405 128.348L165.598 127.92L165.279 131.487L163.563 131.334L163.882 127.767L159.102 127.34L159.228 125.924L170.531 126.932ZM159.981 123.946C162.58 123.889 164.084 122.802 164.394 121.718L160.663 121.385L160.784 120.023L164.543 120.358L164.669 118.942L166.385 119.095L166.258 120.512L170.031 120.848L169.909 122.21L166.191 121.878C166.285 122.985 167.571 124.335 170.113 124.85L169.365 126.156C167.282 125.73 165.841 124.729 165.138 123.534C164.226 124.599 162.625 125.314 160.486 125.364L159.981 123.946ZM181.441 120.425L181.017 125.177L182.773 125.334L182.646 126.764L180.889 126.607L180.338 132.79L178.595 132.634L179.698 120.269L181.441 120.425ZM170.734 128.433C173.799 127.224 175.555 125.39 176.129 122.655L171.996 122.286L172.122 120.87L178.019 121.396C177.675 125.099 175.945 128.177 171.595 129.855L170.734 128.433Z" fill="white"/>
<path d="M122.212 122.184L118.061 121.814L117.691 125.964C117.671 126.184 117.565 126.387 117.396 126.529C117.226 126.671 117.007 126.74 116.787 126.72C116.567 126.7 116.364 126.594 116.222 126.424C116.08 126.255 116.011 126.036 116.031 125.816L116.401 121.666L112.251 121.295C112.031 121.276 111.828 121.17 111.686 121C111.544 120.83 111.475 120.612 111.495 120.391C111.515 120.171 111.621 119.968 111.791 119.826C111.96 119.684 112.179 119.616 112.399 119.635L116.549 120.006L116.92 115.855C116.939 115.635 117.046 115.432 117.215 115.29C117.385 115.148 117.604 115.08 117.824 115.099C118.044 115.119 118.247 115.225 118.389 115.395C118.531 115.564 118.599 115.783 118.58 116.004L118.209 120.154L122.36 120.524C122.58 120.544 122.783 120.65 122.925 120.819C123.067 120.989 123.135 121.208 123.116 121.428C123.096 121.648 122.99 121.851 122.82 121.993C122.651 122.135 122.432 122.204 122.212 122.184Z" fill="white"/>
</g>
<defs>
<clipPath id="clip0_144_5802">
<rect width="204" height="204" fill="white" transform="translate(0.669189 145) rotate(-45)"/>
</clipPath>
</defs>
</svg>
