<svg width="193" height="140" viewBox="0 0 193 140" fill="none" xmlns="http://www.w3.org/2000/svg">
<g style="mix-blend-mode:multiply" opacity="0.3">
<path d="M191.717 131.601L191.646 131.562L17.2113 29.8256L10.6166 33.6357L10.5377 33.5883L3.85631 37.4457L1.48981 38.8104L1.45825 38.8262L1.49769 38.8499C1.49769 38.8499 1.49769 38.8814 1.49769 38.8972C1.49769 38.8972 1.52136 39.0076 1.60813 39.1338C1.65546 39.1891 7.27197 45.4209 7.55595 45.7127C7.73738 45.902 7.91093 46.0598 8.12391 46.186C9.79624 47.1484 11.4686 48.1187 13.1409 49.0811L159.02 133.281C160.693 134.244 162.365 135.214 164.037 136.176C164.274 136.318 164.582 136.413 164.85 136.5C165.362 136.665 176.154 139.908 176.248 139.931C176.643 140.042 177.163 140.018 177.518 139.813L191.741 131.601H191.717Z" fill="#353535"/>
</g>
<path d="M142.384 67.9657C141.887 68.1156 140.64 68.2339 140.333 68.3838C140.333 68.3838 124.398 77.5816 124.359 77.6053C124.209 77.6999 123.42 78.2837 122.884 78.7491L114.238 73.3377C114.719 72.9196 115.358 72.4463 115.902 72.0598C115.981 72.0045 117.22 71.1605 117.496 70.9791C117.985 70.6635 118.466 70.3559 118.955 70.0482C119.563 69.6696 122.237 68.0604 122.97 67.6344C123.215 67.4924 127.964 64.8261 128.445 64.5658C128.752 64.4081 130.456 63.5403 130.638 63.4536C130.78 63.3826 131.687 62.9724 131.726 62.9566C132.176 62.7594 132.72 62.5385 133.202 62.4044L133.604 62.507L142.399 67.9657H142.384Z" fill="#102844"/>
<path d="M121.661 110.176L113.165 105.049C112.992 104.812 112.913 104.481 112.85 104.142C112.605 102.864 112.503 100.986 112.439 99.598C112.4 98.7382 112.266 83.5531 112.282 82.4409C112.29 81.6599 112.313 80.879 112.353 80.0822C112.479 77.6369 112.755 75.2546 114.23 73.3456L122.876 78.757C121.409 80.666 121.125 83.0088 120.998 85.4148C120.959 86.2036 120.935 86.9767 120.927 87.7497C120.912 88.8462 121.038 103.834 121.069 104.686C121.117 105.901 121.251 109.048 121.653 110.192L121.661 110.176Z" fill="#091B32"/>
<path d="M69.1087 27.246L53.1506 36.4596C46.8241 32.8073 21.5262 18.1981 15.1997 14.5458C13.3775 13.4966 11.2398 13.0312 9.14935 12.6683L27.4898 2.07428C28.6257 3.37586 29.4303 4.33824 31.15 5.33217C37.4764 8.98448 62.7744 23.5937 69.1009 27.246H69.1087Z" fill="#E6E0DE"/>
<path d="M70.5997 26.6702C70.9625 26.7255 71.3096 26.8438 71.6251 27.0252L79.2453 31.2455C78.7641 31.3875 78.2356 31.6005 77.7702 31.8056C77.7307 31.8213 76.8236 32.2394 76.6816 32.3025C76.5001 32.3893 74.7963 33.257 74.4886 33.4148C73.9995 33.6751 69.2586 36.3414 69.0141 36.4834C68.2805 36.9093 65.6063 38.5186 64.9989 38.8972C64.5098 39.2048 64.0287 39.5125 63.5396 39.828C63.2635 40.0094 62.025 40.8535 61.9461 40.9087C61.4018 41.2953 60.7629 41.7764 60.2817 42.1866L51.636 37.6114C52.1882 37.1381 52.985 36.5544 53.1191 36.4676C53.1585 36.4439 69.0851 27.2461 69.093 27.2461C69.4085 27.0883 70.0948 26.8201 70.5918 26.6702H70.5997Z" fill="#102844"/>
<path d="M59.2326 73.8899L50.4292 69.0307C50.0269 67.8948 49.8928 64.7315 49.8454 63.5325C49.8139 62.6806 49.6877 47.7006 49.7034 46.5962C49.735 44.6083 49.806 42.1235 50.3424 40.2461C50.6422 39.2127 51.0681 38.3607 51.6519 37.6114L60.2975 42.1866C58.8145 44.1114 58.5384 46.5015 58.4201 48.9233C58.3806 49.72 58.3649 50.5009 58.3491 51.2819C58.3333 52.3941 58.4674 67.5792 58.5069 68.4391C58.57 69.8274 58.6725 71.7048 58.917 72.9827C58.9802 73.3298 59.059 73.6611 59.2326 73.8899Z" fill="#091B32"/>
<path d="M20.8163 48.2764C30.519 53.8771 40.2217 59.4779 49.9243 65.0865C49.9401 65.3863 49.9559 65.6387 49.9638 65.7649C50.019 66.5695 50.1531 68.3049 50.4292 69.0465C40.7265 63.4457 31.0238 57.845 21.3212 52.2443C21.0529 51.5106 20.8952 49.7594 20.8084 48.2843L20.8163 48.2764Z" fill="#102844"/>
<path d="M20.7532 47.0458C30.4559 52.6465 40.1585 58.2473 49.8612 63.848C49.877 64.2582 49.9007 64.7078 49.9243 65.0707C40.2216 59.47 30.519 53.8692 20.8163 48.2606C20.7926 47.811 20.769 47.3929 20.7532 47.0379V47.0458Z" fill="#95AAF4"/>
<path d="M49.8612 63.8559C40.1585 58.2552 30.4558 52.6544 20.7532 47.0537C20.7453 46.7776 20.7295 46.5489 20.7216 46.3595C20.7137 46.1229 20.7058 45.7442 20.6979 45.2631C30.4006 50.8638 40.0954 56.4645 49.7981 62.0653H49.8139C49.8139 62.4518 49.8139 62.7121 49.8217 62.8146C49.8217 62.9961 49.8454 63.3984 49.8691 63.8559H49.8612Z" fill="#102844"/>
<path d="M23.6245 0.82005C22.5438 0.654395 21.4394 0.764832 20.4928 1.2618C21.5341 0.709613 22.7568 0.551846 23.9085 0.701725C24.7446 0.804274 25.5729 0.938376 26.417 1.09614C26.5274 1.11981 26.6299 1.15136 26.7325 1.20658C26.8745 1.28546 27.0086 1.35646 27.1427 1.43534C27.1427 1.43534 27.1427 1.43534 27.1506 1.43534C41.815 9.89955 56.4716 18.3638 71.136 26.828C70.9862 26.7412 70.8126 26.686 70.6154 26.6544C70.1658 26.7885 69.6373 26.9936 69.2113 27.1829C69.1797 27.1987 69.1482 27.2145 69.1166 27.2303C62.7902 23.578 37.4922 8.96872 31.1657 5.31641C29.4461 4.32248 28.6336 3.3601 27.5055 2.05852C27.3636 1.97175 27.2216 1.88498 27.0875 1.79821C26.4485 1.3959 25.7386 1.13558 24.9892 1.00937C24.5395 0.930487 24.0899 0.86738 23.6324 0.804274L23.6245 0.82005Z" fill="#D7CDCA"/>
<path d="M4.29803 10.6016C9.65423 7.50936 15.0025 4.41712 20.3587 1.33277C20.3587 1.33277 20.3587 1.33277 20.3666 1.33277C20.4061 1.30911 20.4455 1.28544 20.4928 1.26178C21.4394 0.764812 22.5438 0.662264 23.6245 0.820031C24.0741 0.875249 24.5317 0.946244 24.9813 1.02513C25.7228 1.15134 26.4406 1.41955 27.0796 1.81396C27.2216 1.90074 27.3636 1.98751 27.4977 2.07428L9.14937 12.6605C8.54197 12.4475 6.38845 11.3194 5.97037 11.0039C5.48129 10.6805 4.866 10.428 4.31381 10.6174L4.29803 10.5937V10.6016Z" fill="#102844"/>
<path d="M13.4486 26.2443C13.5038 26.2285 13.5196 26.2285 13.5906 26.2443C13.6537 26.26 13.6774 26.2679 13.7405 26.3074C15.5706 27.3644 17.4007 28.4214 19.2308 29.4785C19.5069 29.6362 19.7356 30.0307 19.7356 30.362C19.7356 30.8195 19.7672 42.0683 19.8224 44.2139C19.8461 45.1526 19.8855 46.2965 19.9328 47.2194C19.9328 47.3535 19.9092 47.4482 19.8461 47.5034C19.8145 47.5349 19.7908 47.5428 19.7435 47.5586C19.6883 47.5665 19.6725 47.5665 19.6094 47.5586C19.5463 47.5428 19.5226 47.5349 19.4595 47.4955C13.5748 44.0956 13.9535 44.3165 13.9219 44.3007C13.63 44.1035 13.4407 43.7406 13.4249 43.4645C13.3776 42.581 13.3539 41.8238 13.3303 40.9324C13.2356 37.7612 13.2277 27.2461 13.2277 26.6071C13.2277 26.473 13.2672 26.3784 13.3382 26.3074C13.3776 26.2758 13.4013 26.26 13.4486 26.2521V26.2443Z" fill="#102844"/>
<path d="M19.6882 47.6138C19.6882 47.6138 19.6409 47.6138 19.6014 47.598C19.5304 47.5822 19.5068 47.5743 19.4358 47.527L16.9273 46.0834C14.9078 44.9212 13.8955 44.3349 13.8902 44.3243C13.5668 44.1035 13.3854 43.7169 13.3775 43.4566C13.3381 42.6441 13.3065 41.9105 13.2828 40.9245C13.1882 37.7691 13.1803 27.2618 13.1803 26.5992C13.1803 26.4493 13.2197 26.3389 13.3065 26.2679C13.3538 26.2285 13.3854 26.2127 13.4406 26.1969C13.5037 26.1811 13.5274 26.1811 13.5984 26.1969C13.6694 26.2127 13.693 26.2206 13.764 26.26L15.4679 27.2461C16.7301 27.9718 17.9922 28.7054 19.2543 29.4311C19.5462 29.5968 19.7829 30.0149 19.7829 30.3541C19.7829 30.8274 19.8144 42.0762 19.8696 44.206C19.9012 45.3025 19.9406 46.399 19.9801 47.2115C19.9801 47.3614 19.9564 47.4639 19.8775 47.5349C19.8381 47.5743 19.8065 47.5901 19.7513 47.598C19.7197 47.598 19.704 47.6059 19.6803 47.6059L19.6882 47.6138ZM13.5116 26.2837C13.5116 26.2837 13.4801 26.2837 13.4564 26.2916C13.4169 26.2995 13.4012 26.3073 13.3696 26.3389C13.3065 26.3941 13.275 26.4809 13.275 26.5992C13.275 27.2618 13.2828 37.7691 13.3775 40.9245C13.4091 41.9105 13.4327 42.6441 13.4722 43.4566C13.4801 43.6933 13.6536 44.0483 13.9455 44.2533C13.9455 44.2533 14.2452 44.4348 16.9667 46.0046L19.4752 47.4481C19.5383 47.4797 19.5541 47.4955 19.6172 47.5034C19.6724 47.5191 19.6803 47.5191 19.7276 47.5034C19.7671 47.4955 19.7829 47.4876 19.8065 47.4639C19.8617 47.4087 19.8854 47.3298 19.8775 47.2115C19.8381 46.399 19.7986 45.3025 19.7671 44.206C19.7119 42.0841 19.6803 30.8274 19.6803 30.3541C19.6803 30.0464 19.4673 29.6678 19.1991 29.5179C17.937 28.7843 16.6748 28.0586 15.4127 27.3328L13.7088 26.3468C13.6457 26.3073 13.6299 26.3073 13.5668 26.2916C13.5353 26.2916 13.5195 26.2837 13.5037 26.2837H13.5116Z" fill="#102844"/>
<path d="M4.31379 10.6253C4.86598 10.4359 5.48127 10.6805 5.97035 11.0118C6.38843 11.3194 8.54195 12.4554 9.14936 12.6683C11.2398 13.0391 13.3775 13.4966 15.1997 14.5458C21.5262 18.1981 46.8241 32.8073 53.1506 36.4596L53.056 36.5227C52.5905 36.8619 52.0857 37.2406 51.6518 37.6192C50.5553 39.0549 50.1215 40.7114 49.9164 42.4942C11.9024 20.533 9.2519 19.0185 9.10202 18.9001C9.10202 18.9001 9.10202 18.8923 9.10202 18.8844C9.10202 18.8844 9.10202 18.8844 9.10202 18.8765C8.73127 17.5039 8.18698 16.1787 7.38236 14.7666C6.83018 13.7885 6.08867 12.9365 5.1894 12.2581C5.1894 12.2581 5.1894 12.2581 5.18151 12.2503C4.11658 11.564 3.50129 11.2721 3.13843 11.8401C3.35141 11.3904 3.65906 10.996 4.10081 10.7357C4.1718 10.6962 4.2428 10.6489 4.31379 10.6095L4.32957 10.6331L4.31379 10.6253Z" fill="#D7CDCA"/>
<path d="M35.3071 51.3765C35.3071 51.7079 35.5517 52.0865 35.8278 52.2443C47.2265 58.8232 46.6033 58.484 46.7374 58.5076C46.9109 58.5313 47.0529 58.4209 47.0529 58.1526C47.0056 55.4627 47.0056 45.7443 47.0135 45.0974C47.0135 44.7582 46.7847 44.3717 46.5165 44.2139C35.1336 37.6429 35.7331 37.9663 35.599 37.9506C35.4255 37.9269 35.2677 38.0452 35.2677 38.3134C35.2677 38.8735 35.2677 49.1757 35.3071 51.3687V51.3765ZM22.0547 30.7012C22.0547 30.8826 22.0547 32.0895 22.0547 33.7145C22.0547 37.0907 22.0705 42.2734 22.0942 43.7564C22.0942 44.0877 22.3387 44.4742 22.6148 44.6241C34.0135 51.203 33.3982 50.8717 33.5244 50.8875C33.6979 50.9111 33.8478 50.8007 33.8399 50.5325C33.8084 48.7261 33.8005 43.7564 33.8005 40.4827C33.8005 38.8814 33.8005 37.6902 33.8005 37.4773C33.8005 37.1381 33.5717 36.7515 33.3035 36.5938C21.9127 30.0149 22.528 30.3462 22.386 30.3304C22.2125 30.3067 22.0547 30.4251 22.0547 30.6933V30.7012ZM9.10203 18.9002C9.25191 19.0185 11.9103 20.541 49.9164 42.4864C49.8691 42.8966 49.8375 43.3146 49.8059 43.7406C49.7823 44.0562 49.7823 58.4761 49.8059 62.0653H49.7902C40.0875 56.4645 30.3927 50.8638 20.69 45.2631C20.6269 41.453 20.5717 31.0088 20.5796 30.4487C20.5796 29.794 20.1378 29.0052 19.5857 28.6817C12.7543 24.7376 13.3539 25.0689 13.1803 25.0137C12.6912 24.8638 12.3836 25.1951 12.3836 25.7078C12.3836 26.3468 12.3836 33.257 12.3836 34.7558C12.3915 36.0574 12.4073 40.254 12.6045 43.5434C8.96004 41.4372 9.19669 41.5871 9.09415 41.4846C9.33869 40.2066 9.49645 38.629 9.599 37.0907C9.68577 37.1775 9.69366 37.1696 10.4588 37.6114C10.5219 37.6508 10.5535 37.6587 10.6087 37.6745C10.6718 37.6902 10.6876 37.6902 10.7428 37.6745C10.7901 37.6666 10.8138 37.6508 10.8532 37.6193C10.9242 37.5561 10.9558 37.4615 10.9558 37.3274C10.9164 35.1344 10.9085 24.8322 10.9164 24.2722C10.9164 23.9803 10.7428 23.6174 10.4588 23.4123C10.4273 23.3887 10.4115 23.3808 9.87509 23.0731C9.8041 23.0337 9.76466 23.0021 9.70944 22.9548C9.61478 21.4876 9.42546 20.1702 9.07837 18.8923L9.10203 18.9002Z" fill="#6687FC"/>
<path d="M7.54018 44.1271C7.67428 44.1745 7.74527 44.2297 7.87938 44.1903C8.07658 44.135 8.23435 43.9457 8.35268 43.7801C8.66821 43.2989 8.91275 42.4785 9.10207 41.4767C9.20462 41.5792 8.96008 41.4293 12.6124 43.5355C12.7228 45.3262 12.8806 46.8486 13.1172 47.4876C11.4449 46.5252 9.77258 45.5549 8.10025 44.5926C7.88726 44.4663 7.71372 44.3086 7.53229 44.1193L7.54018 44.1271Z" fill="#102844"/>
<path d="M5.18159 12.2581C6.07298 12.9365 6.82237 13.7885 7.37455 14.7666C8.17917 16.1787 8.72346 17.5039 9.09422 18.8765C8.93645 18.7187 8.10817 17.8747 7.83997 17.5986C7.24834 16.9754 3.27261 12.6368 3.17006 12.5106C3.04385 12.3686 2.98863 12.195 3.03596 12.0373C3.05962 11.9663 3.09118 11.9032 3.12273 11.8322C3.48559 11.2721 4.10877 11.564 5.16581 12.2424C5.16581 12.2424 5.16581 12.2424 5.1737 12.2503L5.18159 12.2581Z" fill="#102844"/>
<path d="M1.09535 32.6338C1.261 32.8941 1.51343 33.2097 1.71853 33.4542C2.77557 34.7242 7.25615 39.6623 9.10203 41.4845C8.91271 42.4864 8.66817 43.2989 8.35263 43.7879C8.2422 43.9615 8.07654 44.1508 7.87933 44.1981C7.74523 44.2376 7.67424 44.1824 7.54013 44.135C7.25615 43.8353 1.63964 37.6114 1.59231 37.5561C1.50554 37.4299 1.48188 37.3195 1.48188 37.3195C1.33989 36.1047 1.22156 35.2685 1.09535 33.5488C1.07168 33.186 1.04802 32.8152 1.02435 32.4445C1.02435 32.5076 1.04802 32.5707 1.09535 32.6338Z" fill="#102844"/>
<path d="M1.00078 29.2102C1.20587 29.581 1.60818 30.0543 1.87638 30.3777C2.04993 30.5828 2.19192 30.5197 2.21558 30.2357C2.2708 29.2891 2.57056 25.5027 2.65733 24.635C2.96498 21.5191 3.31995 19.3971 3.58816 18.0245C3.8327 16.8019 4.00624 16.1787 4.02202 15.9894C4.04568 15.7369 3.97469 15.4529 3.87214 15.2242C3.75381 14.956 3.7617 15.0112 2.79143 13.9226C2.68888 13.8043 2.65733 13.6781 2.67311 13.5676C2.72044 13.3073 2.77566 13.0549 2.82299 12.7946C2.87032 12.5343 2.94131 12.2818 3.03597 12.0373C2.98075 12.2029 3.03597 12.3686 3.17007 12.5185C3.28051 12.6368 7.24835 16.9833 7.83998 17.6065C8.10818 17.8826 8.93646 18.7266 9.09423 18.8844C9.09423 18.8844 9.09423 18.8844 9.09423 18.8923C9.09423 18.8923 9.08634 18.8923 9.09423 18.908C9.44132 20.186 9.62275 21.5033 9.7253 22.9705C9.69374 22.939 9.6543 22.9074 9.60697 22.8601C7.61122 20.9511 5.12639 18.1271 5.00017 18.0561C4.87396 17.9851 4.79507 18.0561 4.76352 18.1823C4.02202 21.3613 3.60393 25.1162 3.35151 28.3583C3.24107 29.8334 3.24896 29.7388 3.26473 29.8807C3.2884 30.1411 3.4225 30.5276 3.59604 30.7248C5.15794 32.476 7.90309 35.4815 9.59908 37.0986C9.49653 38.6368 9.33877 40.2145 9.09423 41.4924C7.24835 39.6702 2.76777 34.7242 1.71073 33.4621C1.51352 33.2175 1.26109 32.9099 1.08755 32.6417C1.04811 32.5786 1.02444 32.5155 1.01655 32.4524H1.03233C0.97711 31.3322 0.945557 30.1805 0.945557 29.0367C0.945557 29.0998 0.961333 29.1629 1.00078 29.2181V29.2102Z" fill="#95AAF4"/>
<path d="M13.3302 40.9245C13.3538 41.8158 13.3854 42.5731 13.4248 43.4566C13.4406 43.7248 13.6299 44.0877 13.9218 44.2928C13.9534 44.3165 13.5747 44.0956 19.4594 47.4876C19.5225 47.527 19.5462 47.5349 19.6093 47.5507C19.6724 47.5665 19.6882 47.5665 19.7434 47.5507C19.7907 47.5428 19.8144 47.527 19.846 47.4955C19.9091 47.4324 19.9406 47.3377 19.9327 47.2115C19.8854 46.2885 19.846 45.1447 19.8223 44.206C19.7671 42.0604 19.7355 30.8116 19.7355 30.3541C19.7355 30.0227 19.5068 29.6362 19.2307 29.4706C17.4006 28.4135 15.5705 27.3565 13.7404 26.2994C13.6694 26.26 13.6536 26.2521 13.5905 26.2363C13.5274 26.2206 13.5116 26.2206 13.4485 26.2363C13.4012 26.2442 13.3775 26.26 13.3381 26.2916C13.2671 26.3547 13.2276 26.4572 13.2276 26.5913C13.2276 27.2303 13.2276 37.7455 13.3302 40.9166V40.9245ZM13.1882 25.0058C13.3617 25.061 12.7622 24.7297 19.5935 28.6738C20.1457 28.9973 20.5953 29.7861 20.5875 30.4408C20.5875 31.0088 20.6348 41.4451 20.6979 45.2552C20.7058 45.7442 20.7137 46.1229 20.7216 46.3516C20.7216 46.5331 20.7373 46.7697 20.7531 47.0458C20.7689 47.4008 20.7847 47.8268 20.8162 48.2685C20.903 49.7358 21.0529 51.4949 21.329 52.2206C18.5917 50.6429 15.8623 49.0652 13.1251 47.4876C12.8805 46.8407 12.7228 45.3183 12.6202 43.5355C12.423 40.2461 12.4072 36.0573 12.3993 34.7479C12.3915 33.2491 12.3915 26.3389 12.3993 25.6999C12.3993 25.1793 12.7149 24.8559 13.1961 25.0058H13.1882Z" fill="#95AAF4"/>
<path d="M21.4157 52.3389L21.2974 52.2758C18.5602 50.6981 15.8308 49.1205 13.0935 47.5428H13.0777V47.5191C12.8648 46.9433 12.6912 45.6023 12.565 43.5513C12.3757 40.4354 12.352 36.4754 12.3441 34.9924V34.7637C12.3362 33.3359 12.3284 26.3783 12.3441 25.7157C12.3441 25.416 12.4467 25.1714 12.6281 25.0452C12.7859 24.9348 12.9831 24.9111 13.204 24.9742C13.2118 24.9742 13.2197 24.9742 13.2276 24.9742C13.2802 24.9847 14.0743 25.4344 15.6099 26.3231C16.525 26.8516 17.8186 27.601 19.6251 28.6423C20.193 28.9736 20.6506 29.7782 20.6427 30.4487C20.6427 30.9378 20.6821 41.3978 20.7531 45.2631C20.761 45.7758 20.7689 46.1308 20.7768 46.3595C20.7768 46.541 20.7926 46.7776 20.8083 47.0458C20.8241 47.4876 20.8478 47.8899 20.8714 48.2685C20.9898 50.2958 21.1633 51.6211 21.3763 52.2127L21.4236 52.3389H21.4157ZM13.1566 47.4639C15.8466 49.0179 18.5444 50.5719 21.2343 52.1259C21.0371 51.4791 20.8714 50.1854 20.761 48.2764C20.7373 47.8978 20.7216 47.4955 20.6979 47.0537C20.69 46.7776 20.6742 46.5489 20.6663 46.3595C20.6585 46.1308 20.6506 45.7679 20.6427 45.2552C20.5796 41.3899 20.5244 30.9299 20.5322 30.4408C20.5322 29.8019 20.0984 29.0288 19.562 28.7212C17.7555 27.6799 16.4697 26.9305 15.5468 26.402C13.346 25.132 13.2592 25.0768 13.1961 25.0689C13.1882 25.0689 13.1803 25.0689 13.1645 25.061C12.9673 24.9979 12.8017 25.0215 12.6676 25.1162C12.5098 25.2266 12.423 25.4396 12.423 25.7157C12.423 26.3783 12.423 33.3359 12.423 34.7637V34.9924C12.4309 36.4833 12.4546 40.4354 12.6439 43.5513C12.7622 45.5786 12.9358 46.8959 13.1409 47.4797L13.1566 47.4639ZM19.6882 47.6138C19.6882 47.6138 19.6409 47.6138 19.6014 47.598C19.5304 47.5822 19.5068 47.5743 19.4358 47.527L16.9273 46.0834C14.9078 44.9212 13.8955 44.3349 13.8902 44.3243C13.5668 44.1035 13.3854 43.7169 13.3775 43.4566C13.3381 42.6441 13.3065 41.9105 13.2828 40.9245C13.1882 37.7691 13.1803 27.2618 13.1803 26.5992C13.1803 26.4493 13.2197 26.3389 13.3065 26.2679C13.3538 26.2285 13.3854 26.2127 13.4406 26.1969C13.5037 26.1811 13.5274 26.1811 13.5984 26.1969C13.6694 26.2127 13.693 26.2206 13.764 26.26L15.4679 27.2461C16.7301 27.9718 17.9922 28.7054 19.2543 29.4311C19.5462 29.5968 19.7829 30.0149 19.7829 30.3541C19.7829 30.8274 19.8144 42.0762 19.8696 44.206C19.9012 45.3025 19.9406 46.399 19.9801 47.2115C19.9801 47.3614 19.9564 47.4639 19.8775 47.5349C19.8381 47.5743 19.8065 47.5901 19.7513 47.598C19.7197 47.598 19.704 47.6059 19.6803 47.6059L19.6882 47.6138ZM13.5116 26.2837C13.5116 26.2837 13.4801 26.2837 13.4564 26.2916C13.4169 26.2994 13.4012 26.3073 13.3696 26.3389C13.3065 26.3941 13.275 26.4809 13.275 26.5992C13.275 27.2618 13.2828 37.7691 13.3775 40.9245C13.4091 41.9105 13.4327 42.6441 13.4722 43.4566C13.4801 43.6933 13.6536 44.0482 13.9455 44.2533C13.9455 44.2533 14.2452 44.4348 16.9667 46.0046L19.4752 47.4481C19.5383 47.4797 19.5541 47.4955 19.6172 47.5033C19.6724 47.5191 19.6803 47.5191 19.7276 47.5033C19.7671 47.4955 19.7828 47.4876 19.8065 47.4639C19.8617 47.4087 19.8854 47.3298 19.8775 47.2115C19.8381 46.399 19.7986 45.3025 19.7671 44.206C19.7119 42.084 19.6803 30.8274 19.6803 30.3541C19.6803 30.0464 19.4673 29.6678 19.1991 29.5179C17.937 28.7843 16.6748 28.0586 15.4127 27.3328L13.7088 26.3468C13.6457 26.3073 13.6299 26.3073 13.5668 26.2916C13.5353 26.2916 13.5195 26.2837 13.5037 26.2837H13.5116Z" fill="#102844"/>
<path d="M35.599 37.9585C35.7331 37.9742 35.1336 37.6508 46.5165 44.2218C46.7847 44.3796 47.0214 44.7661 47.0135 45.1053C47.0056 45.7443 47.0056 55.4706 47.0529 58.1605C47.0529 58.4288 46.9109 58.5392 46.7374 58.5155C46.6033 58.4997 47.2186 58.8311 35.8278 52.2522C35.5517 52.0944 35.315 51.7079 35.3071 51.3844C35.2677 49.1915 35.2598 38.8893 35.2677 38.3292C35.2677 38.061 35.4255 37.9427 35.599 37.9664V37.9585Z" fill="#102844"/>
<path d="M46.7767 58.5628C46.7767 58.5628 46.7452 58.5628 46.7215 58.5628C46.7215 58.5628 46.7215 58.5628 46.7136 58.5628C46.661 58.5628 45.2227 57.7451 42.3987 56.1095C40.8447 55.2103 38.7148 53.9797 35.7961 52.2916C35.4964 52.118 35.2597 51.7157 35.2518 51.3844C35.2124 49.2467 35.2045 38.9366 35.2124 38.3292C35.2124 38.1399 35.2834 38.0452 35.3465 37.99C35.4175 37.9269 35.5043 37.9032 35.5989 37.919C35.5989 37.919 35.5989 37.919 35.6068 37.919C35.6594 37.919 37.1004 38.7367 39.9296 40.3723C41.4836 41.2715 43.6135 42.5021 46.5243 44.1823C46.8241 44.3559 47.0528 44.7582 47.0449 45.1053C47.0371 45.831 47.037 55.4864 47.0844 58.1526C47.0844 58.3419 47.0213 58.4366 46.9661 58.4839C46.9108 58.5313 46.8477 58.5549 46.7688 58.5549L46.7767 58.5628ZM35.5595 38.0058C35.5043 38.0058 35.4491 38.0215 35.4096 38.061C35.3465 38.1162 35.315 38.2109 35.315 38.3292C35.3071 38.9366 35.315 49.2467 35.3544 51.3844C35.3544 51.6842 35.5832 52.0628 35.8514 52.2127C38.7701 53.9008 40.8999 55.1314 42.4539 56.0307C46.3508 58.2867 46.6742 58.4682 46.7215 58.4682C46.7215 58.4682 46.7373 58.4682 46.7452 58.4682C46.8162 58.476 46.8714 58.4682 46.9187 58.4208C46.9739 58.3656 47.0055 58.2788 47.0055 58.1605C46.9582 55.4942 46.9582 45.831 46.9661 45.1053C46.9661 44.7976 46.761 44.419 46.4928 44.2612C43.5819 42.581 41.4521 41.3504 39.8981 40.4511C35.9934 38.1951 35.6699 38.0058 35.6226 38.0058C35.6226 38.0058 35.6068 38.0058 35.5989 38.0058C35.5832 38.0058 35.5753 38.0058 35.5674 38.0058H35.5595Z" fill="#102844"/>
<path d="M33.8399 50.5325C33.8399 50.7928 33.6979 50.9111 33.5244 50.8875C33.3903 50.8717 34.0055 51.203 22.6148 44.6241C22.3466 44.4663 22.102 44.0877 22.0941 43.7564C22.0705 42.2734 22.0547 37.0986 22.0547 33.7145C25.9673 35.9706 29.872 38.2267 33.7847 40.4906H33.7926C33.7926 43.7564 33.8004 48.7339 33.832 50.5404L33.8399 50.5325Z" fill="#102844"/>
<path d="M33.5717 50.9348C33.5717 50.9348 33.5402 50.9348 33.5165 50.9348C33.4639 50.9348 32.0282 50.1196 29.2095 48.4894C27.6476 47.5901 25.5177 46.3516 22.5911 44.6635C22.2914 44.49 22.0547 44.0877 22.0468 43.7485C22.0232 42.2497 22.0074 36.9251 22.0074 33.7066V33.6277L22.0784 33.6672C24.6894 35.1738 27.3005 36.6805 29.9115 38.1872L33.8005 40.4275H33.8478V40.4748C33.8478 44.0325 33.8636 48.797 33.8872 50.5167C33.8872 50.6981 33.8241 50.8007 33.7689 50.848C33.7137 50.8953 33.6427 50.919 33.5717 50.919V50.9348ZM22.102 33.7934C22.102 37.0118 22.1178 42.2655 22.1415 43.7485C22.1415 44.0561 22.3702 44.4269 22.6385 44.5768C25.565 46.2649 27.7028 47.5033 29.2568 48.4026C33.1457 50.6508 33.4613 50.8322 33.5086 50.8322C33.5086 50.8322 33.5244 50.8322 33.5323 50.8322C33.6033 50.8401 33.6585 50.8322 33.7058 50.7849C33.761 50.7297 33.7926 50.6429 33.7926 50.5246C33.761 48.8049 33.7531 44.064 33.7531 40.5143L29.8721 38.274C27.2847 36.7831 24.6973 35.2843 22.1099 33.7934H22.102Z" fill="#102844"/>
<path d="M22.3939 30.3383C22.528 30.354 21.9206 30.0227 33.3114 36.6016C33.5796 36.7594 33.8084 37.1459 33.8084 37.4851C33.8084 37.6981 33.8084 38.8892 33.8084 40.4906H33.8005C29.8879 38.2345 25.9831 35.9784 22.0705 33.7145C22.0705 32.0895 22.0705 30.8826 22.0705 30.7011C22.0705 30.4329 22.2283 30.3146 22.4018 30.3383H22.3939Z" fill="#102844"/>
<path d="M33.8479 40.53H33.7769L29.8721 38.2739C27.2611 36.7673 24.65 35.2606 22.039 33.7539L22.0153 33.7381V33.7145C22.0153 32.1289 22.0153 30.8904 22.0153 30.7011C22.0153 30.5118 22.0863 30.4171 22.1494 30.3619C22.2204 30.2988 22.3072 30.2752 22.4097 30.2909C22.4097 30.2909 22.4097 30.2909 22.4176 30.2909C22.4702 30.2909 23.919 31.1139 26.7641 32.76C28.3181 33.6593 30.4401 34.8819 33.343 36.5622C33.6428 36.7357 33.8636 37.138 33.8636 37.4851C33.8636 37.6981 33.8636 38.905 33.8636 40.4906V40.5379L33.8479 40.53ZM22.1021 33.6829C24.7052 35.1896 27.3084 36.6884 29.9116 38.1951L33.7453 40.4117C33.7453 38.8577 33.7453 37.6902 33.7453 37.4772C33.7453 37.1696 33.5402 36.7909 33.272 36.6332C30.3691 34.9608 28.2471 33.7302 26.6931 32.831C22.7726 30.567 22.4492 30.3777 22.394 30.3777C22.394 30.3777 22.3782 30.3777 22.3703 30.3777C22.2993 30.3698 22.2362 30.3856 22.1889 30.425C22.1258 30.4802 22.0942 30.5749 22.0942 30.6932C22.0942 30.8747 22.0942 32.1289 22.0942 33.675L22.1021 33.6829Z" fill="#102844"/>
<path d="M2.66514 13.5598C2.64937 13.6781 2.68092 13.8043 2.78347 13.9227C3.75374 15.0191 3.74585 14.9639 3.86417 15.2242C3.96672 15.453 4.03772 15.737 4.01405 15.9894C3.99039 16.1787 3.81684 16.8019 3.58019 18.0246C3.32776 17.7406 2.48371 16.794 2.2865 16.5653C2.19184 16.4548 2.1524 16.3286 2.16818 16.2182C2.32594 15.3426 2.4916 14.4591 2.66514 13.5598Z" fill="#102844"/>
<path d="M3.61174 18.135L3.54864 18.064C3.28043 17.7643 2.44427 16.8255 2.25495 16.6047C2.1524 16.4863 2.10507 16.3522 2.12873 16.2181C2.27861 15.3583 2.44427 14.4906 2.6257 13.5519V13.4967L2.72825 13.5282V13.5676C2.70458 13.6781 2.74402 13.7885 2.8308 13.8911C3.08322 14.175 3.26466 14.3801 3.40665 14.5379C3.80106 14.9797 3.82473 15.0033 3.91939 15.2084C4.03772 15.4766 4.09293 15.7685 4.07716 15.9973C4.06927 16.084 4.02983 16.2418 3.96672 16.51C3.88784 16.8413 3.7774 17.3462 3.63541 18.0325L3.61963 18.1271L3.61174 18.135ZM2.66514 13.8201C2.49949 14.6641 2.3575 15.453 2.21551 16.226C2.19973 16.3286 2.23917 16.439 2.32594 16.5337C2.49949 16.7388 3.2331 17.567 3.55653 17.922C3.68274 17.2752 3.79318 16.8019 3.86417 16.4863C3.91939 16.2339 3.95883 16.0604 3.96672 15.9815C3.99039 15.7606 3.93517 15.4924 3.81684 15.24C3.73007 15.0507 3.71429 15.0349 3.31988 14.5931C3.17788 14.4354 2.99645 14.2303 2.74402 13.9463C2.70458 13.9068 2.68092 13.8595 2.65725 13.8122L2.66514 13.8201Z" fill="#102844"/>
<path d="M10.9241 24.2722C10.9241 23.9803 10.7506 23.6174 10.4666 23.4124C10.4351 23.3887 10.4193 23.3808 9.88289 23.0732C9.81189 23.0337 9.77245 23.0022 9.71723 22.9548C9.68568 22.9233 9.64624 22.8917 9.59891 22.8444C7.60315 20.9354 5.11832 18.1114 4.99211 18.0404C4.86589 17.9694 4.78701 18.0404 4.75546 18.1666C4.01395 21.3456 3.59587 25.1005 3.34344 28.3426C3.233 29.8177 3.24089 29.723 3.25667 29.865C3.28033 30.1253 3.41444 30.5119 3.58798 30.7091C5.14987 32.4603 7.89502 35.4658 9.59102 37.0829C9.67779 37.1696 9.68568 37.1618 10.4508 37.6035C10.514 37.6429 10.5455 37.6508 10.6007 37.6666C10.6638 37.6824 10.6796 37.6824 10.7348 37.6666C10.7822 37.6587 10.8058 37.6429 10.8453 37.6114C10.9163 37.5483 10.9478 37.4536 10.9478 37.3195C10.9084 35.1266 10.9005 24.8244 10.9084 24.2643L10.9241 24.2722Z" fill="#102844"/>
<path d="M10.6955 37.7297C10.6955 37.7297 10.6482 37.7297 10.6166 37.7218C10.5535 37.706 10.5141 37.6902 10.4509 37.6508L10.1039 37.4457C9.67789 37.2011 9.66211 37.1932 9.58323 37.1223C7.68213 35.3 4.50313 31.7818 3.58019 30.7406C3.39087 30.5276 3.25677 30.1332 3.2331 29.8729V29.8413C3.21732 29.7387 3.21732 29.7072 3.31987 28.3425C3.63541 24.2406 4.10871 20.817 4.73189 18.1586C4.75555 18.064 4.795 18.0009 4.8581 17.9772C4.89754 17.9614 4.96065 17.9535 5.03953 18.0009C5.08686 18.0245 5.29985 18.2612 5.82048 18.8292C6.75131 19.8389 8.30531 21.527 9.64633 22.8128L9.67789 22.8443C9.67789 22.8443 9.74099 22.8995 9.76466 22.9232C9.81199 22.9705 9.85143 23.0021 9.92243 23.0415C10.4588 23.3492 10.4746 23.3571 10.5062 23.3807C10.7823 23.5779 10.9874 23.9566 10.9795 24.28C10.9716 24.8953 10.9795 35.229 11.0189 37.3273C11.0189 37.4772 10.9795 37.5877 10.9006 37.6587C10.8611 37.6981 10.8296 37.7139 10.7744 37.7218C10.7428 37.7218 10.7192 37.7297 10.7034 37.7297H10.6955ZM4.91332 18.064C4.91332 18.064 4.89754 18.064 4.88966 18.064C4.8581 18.0798 4.83444 18.1192 4.81866 18.1823C4.19548 20.8328 3.72218 24.2563 3.40665 28.3583C3.3041 29.7072 3.3041 29.7387 3.31198 29.8413V29.8729C3.33565 30.1174 3.46186 30.4881 3.63541 30.6854C4.55834 31.7187 7.73735 35.2448 9.63845 37.0591C9.70944 37.1223 9.72522 37.1301 10.1433 37.3747L10.4983 37.5798C10.5535 37.6113 10.585 37.6271 10.6403 37.635C10.6955 37.6508 10.7113 37.6429 10.7586 37.635C10.798 37.6271 10.8138 37.6192 10.8454 37.5877C10.9085 37.5324 10.9321 37.4536 10.9321 37.3273C10.8927 35.2212 10.8848 24.8874 10.8927 24.2721C10.8927 23.9803 10.7113 23.6332 10.4588 23.4517C10.4273 23.4281 10.4115 23.4202 9.88299 23.1125C9.81199 23.0731 9.76466 23.0336 9.70944 22.9863C9.68578 22.9627 9.65422 22.939 9.62267 22.9074L9.59112 22.8759C8.24221 21.5822 6.6882 19.8941 5.75737 18.8923C5.35507 18.4584 5.03953 18.1113 4.9922 18.0798C4.96854 18.064 4.94487 18.0561 4.92121 18.0561L4.91332 18.064Z" fill="#102844"/>
<path d="M2.17614 16.2261C2.16036 16.3365 2.19981 16.4627 2.29447 16.5731C2.49167 16.794 3.32784 17.7485 3.58816 18.0325C3.31995 19.4051 2.96498 21.527 2.65733 24.6429C2.57056 25.5106 2.27869 29.2971 2.21558 30.2437C2.19981 30.5198 2.04993 30.5829 1.87638 30.3857C1.60029 30.0622 1.20587 29.5889 1.00078 29.2182C0.969222 29.1551 0.945557 29.0998 0.945557 29.0367C0.945557 28.2716 0.961333 27.5064 0.984998 26.7649C1.11121 23.081 1.56085 19.7206 2.16825 16.2418L2.17614 16.2261Z" fill="#102844"/>
<path d="M2.05772 30.5434C2.0025 30.5434 1.92362 30.5119 1.83685 30.4093C1.51342 30.0228 1.15056 29.5889 0.953351 29.234C0.913909 29.163 0.898132 29.0998 0.898132 29.0289C0.898132 28.2795 0.913909 27.5143 0.937574 26.757C1.04801 23.4754 1.41876 20.2333 2.12872 16.2261L2.22338 16.2418C2.2076 16.3444 2.24704 16.4627 2.33381 16.5574C2.52313 16.7782 3.3593 17.717 3.6275 18.0167L3.64328 18.0325V18.0561C3.27253 19.9178 2.95699 22.1423 2.70457 24.6587C2.61779 25.5422 2.32592 29.3286 2.26282 30.2515C2.25493 30.4093 2.19971 30.5198 2.11294 30.5434C2.09716 30.5434 2.08139 30.5434 2.06561 30.5434H2.05772ZM2.17605 16.4864C1.49765 20.3753 1.14267 23.5464 1.03223 26.7491C1.00857 27.5064 0.992793 28.2716 0.992793 29.0131C0.992793 29.0683 1.00857 29.1235 1.04012 29.1787C1.23733 29.5258 1.59231 29.9597 1.91573 30.3383C1.97884 30.4172 2.04194 30.4488 2.08139 30.4409C2.12872 30.4251 2.16027 30.3462 2.16816 30.2279C2.22338 29.3049 2.51525 25.5106 2.60991 24.6271C2.86233 22.1108 3.16998 19.8941 3.54073 18.0325C3.25675 17.717 2.45214 16.8098 2.26282 16.5889C2.23126 16.5495 2.2076 16.51 2.18393 16.4706L2.17605 16.4864Z" fill="#102844"/>
<path d="M192.561 122.806C192.561 123.137 192.561 123.468 192.561 123.8C192.546 124.604 192.522 125.314 192.483 125.961C192.467 126.127 192.348 126.269 192.167 126.371C192.214 125.653 192.238 124.864 192.246 123.965C192.246 123.729 192.246 123.484 192.246 123.239C192.443 123.121 192.404 123.129 192.435 123.097C192.506 123.019 192.554 122.916 192.554 122.813L192.561 122.806Z" fill="#95AAF4"/>
<path d="M192.254 123.239C192.254 123.484 192.254 123.721 192.254 123.965C192.246 124.864 192.214 125.661 192.175 126.371C181.644 132.453 179.183 133.889 178.536 134.244C178.662 133.439 178.733 132.619 178.757 131.759C178.757 131.522 178.765 131.278 178.765 131.041C189.374 124.92 191.709 123.579 192.262 123.239H192.254Z" fill="#95AAF4"/>
<path d="M191.71 130.023C191.915 128.903 192.072 127.783 192.159 126.371C192.333 126.269 192.459 126.127 192.475 125.961C192.388 127.381 192.23 128.501 192.017 129.645C191.994 129.787 191.883 129.929 191.71 130.023Z" fill="#102844"/>
<path d="M192.167 126.371C192.08 127.783 191.923 128.903 191.717 130.023L177.495 138.235C177.968 136.902 178.315 135.593 178.528 134.236C179.175 133.881 181.636 132.445 192.167 126.363V126.371Z" fill="#102844"/>
<path d="M192.569 122.806C192.569 122.908 192.522 123.011 192.451 123.09C192.42 123.121 192.451 123.113 192.262 123.232C191.82 123.5 190.227 124.415 184.121 127.941C182.622 128.809 180.855 129.826 178.765 131.033C178.757 128.414 178.299 125.622 177.771 123.058C177.313 120.794 176.722 118.404 176.099 116.045C179.498 114.089 182.89 112.133 186.282 110.168C187.868 109.253 189.453 108.33 191.039 107.415C191.252 107.289 191.37 107.108 191.347 106.918C192.009 112.164 192.569 117.718 192.577 122.798L192.569 122.806Z" fill="#425082"/>
<path d="M178.71 131.12V131.041C178.694 128.193 178.142 125.133 177.716 123.074C177.29 120.999 176.73 118.641 176.043 116.061L176.028 115.998H176.075C179.491 114.034 182.914 112.062 186.251 110.129C187.836 109.214 189.422 108.299 191 107.376H191.008C191.205 107.258 191.315 107.092 191.292 106.926V106.871H191.378V106.911C191.954 111.423 192.609 117.307 192.609 122.798V122.845C192.593 122.94 192.554 123.034 192.475 123.121C192.475 123.121 192.475 123.129 192.467 123.137C192.451 123.161 192.427 123.184 192.278 123.279C191.938 123.484 190.944 124.06 187.647 125.961L184.137 127.988C183.269 128.493 182.307 129.045 181.242 129.661L178.71 131.12ZM176.146 116.069C176.832 118.641 177.392 120.991 177.81 123.05C178.228 125.093 178.781 128.122 178.804 130.954L181.194 129.574C182.259 128.959 183.214 128.406 184.089 127.901L187.6 125.874C190.897 123.973 191.891 123.405 192.222 123.192C192.372 123.105 192.38 123.09 192.388 123.074C192.388 123.074 192.396 123.058 192.404 123.05C192.475 122.971 192.514 122.884 192.514 122.798V122.75C192.514 117.386 191.883 111.651 191.323 107.195C191.268 107.289 191.181 107.376 191.055 107.447H191.047C189.461 108.37 187.876 109.285 186.29 110.208C182.961 112.133 179.546 114.105 176.138 116.061L176.146 116.069Z" fill="#102844"/>
<path d="M190.842 103.156C191.008 104.386 191.173 105.648 191.339 106.926C191.363 107.116 191.244 107.297 191.031 107.423C190.874 106.145 190.7 104.883 190.534 103.645C190.747 103.519 190.866 103.345 190.842 103.156Z" fill="#102844"/>
<path d="M190.487 100.908C190.574 101.31 190.645 101.704 190.7 102.107C190.747 102.454 190.794 102.801 190.842 103.156C190.865 103.337 190.747 103.519 190.534 103.645C190.479 103.242 190.424 102.84 190.368 102.438C190.321 102.107 190.258 101.775 190.187 101.436C190.408 101.31 190.534 101.12 190.487 100.908Z" fill="#95AAF4"/>
<path d="M177.637 109.924C177.716 110.318 178.023 110.445 178.284 110.295C181.258 108.575 184.239 106.855 187.213 105.136C187.505 104.97 187.655 104.528 187.584 104.181C187.545 103.992 187.529 103.889 187.466 103.755C187.347 103.534 187.095 103.408 186.85 103.55C183.877 105.27 180.895 106.989 177.921 108.709C177.692 108.843 177.582 109.143 177.574 109.411C177.566 109.593 177.605 109.711 177.645 109.932L177.637 109.924ZM190.369 102.438C190.424 102.84 190.479 103.235 190.534 103.645C185.415 106.619 180.272 109.585 175.12 112.543C175.01 112.164 174.907 111.793 174.797 111.431C174.71 111.123 174.6 110.815 174.474 110.508C179.704 107.479 184.949 104.457 190.187 101.436C190.258 101.775 190.321 102.114 190.369 102.438Z" fill="#95AAF4"/>
<path d="M186.842 103.55C187.087 103.408 187.339 103.534 187.458 103.755C187.521 103.881 187.537 103.984 187.576 104.181C187.647 104.528 187.505 104.97 187.205 105.136C184.231 106.855 181.25 108.575 178.276 110.295C178.015 110.445 177.708 110.318 177.629 109.924C177.582 109.711 177.542 109.585 177.558 109.403C177.566 109.135 177.676 108.835 177.905 108.701C180.879 106.982 183.861 105.262 186.835 103.542L186.842 103.55Z" fill="#091B32"/>
<path d="M187.544 95.4409C187.387 95.5355 170.056 105.538 169.89 105.633C169.133 105.262 168.171 104.82 167.405 104.481C166.948 104.039 166.49 103.621 166.025 103.211C164.952 101.602 164.053 100.466 162.365 99.4797C156.038 95.8274 130.74 81.2182 124.414 77.5658L140.372 68.3522C146.699 72.0046 171.996 86.6138 178.323 90.2661C180.177 91.3389 182.236 91.9148 184.373 92.6168C184.981 92.9402 185.588 93.2794 186.203 93.6265C186.582 94.1156 187.126 94.8335 187.552 95.433L187.544 95.4409Z" fill="#E6E0DE"/>
<path d="M177.66 131.183C177.787 131.207 177.897 131.215 177.984 131.215C178.236 131.215 178.536 131.159 178.757 131.033C178.757 131.278 178.757 131.514 178.749 131.751C178.725 132.611 178.646 133.431 178.528 134.236C178.276 134.37 178.299 134.346 178.221 134.362C177.952 134.433 177.66 134.441 177.376 134.386C177.526 133.573 177.621 132.745 177.653 131.885C177.653 131.656 177.66 131.42 177.66 131.183Z" fill="#95AAF4"/>
<path d="M176.225 138.354C176.548 137.478 176.682 137.083 176.809 136.658C177.037 135.908 177.235 135.151 177.377 134.386C177.661 134.449 177.952 134.433 178.221 134.362C178.292 134.346 178.276 134.362 178.528 134.236C178.315 135.593 177.968 136.894 177.495 138.235C177.14 138.44 176.627 138.464 176.225 138.354Z" fill="#102844"/>
<path d="M175.12 112.543C180.271 109.585 185.415 106.619 190.534 103.645C190.7 104.875 190.873 106.138 191.031 107.423C186.062 110.303 181.084 113.182 176.091 116.045C175.775 114.862 175.452 113.687 175.12 112.543Z" fill="#102844"/>
<path d="M173.827 112.645C174.008 112.693 174.048 112.701 174.134 112.708C174.442 112.74 174.836 112.708 175.12 112.543C175.444 113.687 175.775 114.862 176.091 116.045C175.815 116.203 175.42 116.25 175.12 116.219C175.041 116.211 174.994 116.211 174.813 116.156C174.489 114.965 174.158 113.789 173.835 112.645H173.827Z" fill="#102844"/>
<path d="M172.091 112.133C173.148 112.448 173.598 112.582 173.827 112.645C174.15 113.781 174.482 114.957 174.805 116.156C174.521 116.077 173.992 115.919 172.375 115.438L172.21 115.367C171.752 113.758 171.445 112.716 171.437 112.637C171.437 112.59 171.421 112.511 171.429 112.456C171.46 112.204 171.713 112.022 172.091 112.133Z" fill="#102844"/>
<path d="M173.085 110.587C173.196 110.618 173.259 110.642 173.275 110.642C173.661 110.713 174.142 110.697 174.474 110.508C174.6 110.807 174.71 111.115 174.797 111.431C174.907 111.801 175.01 112.172 175.12 112.543C174.836 112.709 174.442 112.748 174.134 112.708C174.048 112.701 174.008 112.693 173.827 112.645C173.74 112.354 173.661 112.07 173.574 111.786C173.456 111.375 173.29 110.973 173.077 110.579L173.085 110.587Z" fill="#95AAF4"/>
<path d="M169.891 105.633C170.048 105.538 187.387 95.5356 187.545 95.4409C188.783 97.0659 189.73 99.3299 190.187 101.436C184.949 104.457 179.712 107.479 174.474 110.508C173.614 108.472 171.87 106.666 169.891 105.633Z" fill="#D7CDCA"/>
<path d="M162.073 107.179C162.657 106.469 163.532 106.003 164.834 105.854C165.473 105.783 166.151 105.79 166.79 105.838C167.413 106.106 168.439 106.564 169.236 106.95C170.805 107.707 172.257 109.033 173.077 110.587C171.594 110.145 162.16 107.21 162.065 107.179H162.073Z" fill="#C4C4C4"/>
<path d="M158.492 127.744C162.144 129.85 161.876 129.708 162.049 129.771C162.381 131.088 162.815 132.287 163.367 133.266C163.595 133.676 163.887 134.094 164.211 134.433C164.455 134.693 164.566 134.741 164.826 134.922C164.558 134.835 164.25 134.733 164.014 134.599C162.341 133.636 160.669 132.666 158.997 131.704C158.752 131.057 158.594 129.534 158.492 127.752V127.744Z" fill="#102844"/>
<path d="M162.049 129.763C162.278 129.842 177.116 134.331 177.377 134.386C177.235 135.151 177.045 135.9 176.809 136.658C176.674 137.084 176.548 137.478 176.225 138.354C176.13 138.33 165.339 135.088 164.826 134.922C164.558 134.741 164.455 134.685 164.211 134.433C163.887 134.102 163.603 133.676 163.367 133.266C162.815 132.287 162.381 131.088 162.049 129.771V129.763Z" fill="#102844"/>
<path d="M162.065 107.179C161.844 107.108 164.818 108.804 121.172 83.6083C121.377 81.8177 121.811 80.169 122.907 78.7333C123.341 78.3547 123.846 77.976 124.311 77.6368L124.406 77.5737C130.733 81.226 156.031 95.8353 162.357 99.4876C164.053 100.466 164.944 101.61 166.017 103.219C166.483 103.621 166.94 104.047 167.398 104.489C168.171 104.828 169.125 105.27 169.882 105.641C171.862 106.674 173.606 108.48 174.466 110.516C174.134 110.705 173.653 110.729 173.267 110.65C173.251 110.65 173.188 110.626 173.077 110.594C172.249 109.04 170.805 107.715 169.236 106.958C168.439 106.571 167.413 106.114 166.79 105.846C166.143 105.798 165.473 105.79 164.834 105.861C163.532 106.003 162.657 106.477 162.073 107.187L162.065 107.179Z" fill="#D7CDCA"/>
<path d="M161.197 124.588C161.316 124.628 169.938 127.365 172.241 128.051C172.454 128.114 172.699 128.099 172.833 127.917C172.88 127.862 172.88 127.854 172.896 127.775C172.904 127.728 172.92 127.657 172.912 127.602C172.494 123.989 171.855 120.273 170.924 116.716C170.616 115.533 170.072 113.695 169.977 113.474C169.875 113.237 169.638 113.024 169.37 112.945C167.761 112.456 161.063 110.295 161 110.271C161.142 109.009 161.442 107.952 162.081 107.179C162.176 107.21 171.618 110.153 173.093 110.587C173.298 110.973 173.464 111.375 173.59 111.793C173.669 112.077 173.756 112.361 173.842 112.653C173.614 112.59 173.172 112.456 172.107 112.141C171.728 112.03 171.476 112.212 171.444 112.464C171.444 112.511 171.444 112.59 171.452 112.645C171.46 112.716 171.768 113.766 172.225 115.375C172.391 115.959 172.636 116.661 172.809 117.355C173.874 121.559 174.497 125.677 174.978 129.968C175.01 130.26 175.286 130.584 175.649 130.686C176.028 130.797 177.061 131.088 177.676 131.191C177.676 131.428 177.676 131.664 177.668 131.893C177.637 132.753 177.542 133.581 177.392 134.394C177.132 134.338 162.286 129.85 162.065 129.771C161.655 128.146 161.387 126.355 161.213 124.588H161.197Z" fill="#6687FC"/>
<path d="M136.854 99.9688C136.854 103.243 136.862 108.204 136.893 110.011C136.893 110.295 137.083 110.658 137.367 110.855C137.406 110.878 136.83 110.547 148.142 117.079C148.205 117.11 148.237 117.126 148.292 117.142C148.355 117.158 148.371 117.158 148.426 117.142C148.474 117.134 148.497 117.118 148.537 117.087C148.608 117.023 148.639 116.929 148.639 116.795C148.616 115.312 148.6 110.129 148.6 106.745C148.6 105.128 148.6 103.921 148.6 103.739C148.6 103.448 148.426 103.077 148.142 102.88C148.111 102.856 148.671 103.179 137.367 96.6557C137.296 96.6163 137.28 96.6084 137.217 96.5926C137.146 96.5769 137.138 96.5769 137.075 96.5926C137.028 96.6084 137.004 96.6163 136.964 96.6478C136.893 96.7188 136.854 96.8135 136.854 96.9476C136.854 97.1606 136.854 98.3517 136.854 99.961V99.9688ZM123.688 102.383C123.688 102.659 123.878 103.03 124.17 103.227C124.17 103.227 124.359 103.337 134.937 109.451C135 109.482 135.032 109.498 135.087 109.514C135.15 109.53 135.166 109.53 135.221 109.514C135.268 109.506 135.292 109.49 135.332 109.459C135.403 109.395 135.434 109.301 135.434 109.167C135.395 106.974 135.387 96.6715 135.395 96.1114C135.395 95.8196 135.221 95.4488 134.937 95.2516C134.906 95.2279 135.466 95.5514 124.162 89.0277C124.091 88.9883 124.075 88.9804 124.012 88.9646C123.949 88.9488 123.933 88.9488 123.87 88.9646C123.822 88.9804 123.799 88.9883 123.759 89.0198C123.68 89.0829 123.649 89.1855 123.649 89.3196C123.641 89.9585 123.641 99.6849 123.688 102.375V102.383ZM121.172 83.6084C164.818 108.804 161.852 107.108 162.065 107.179C161.426 107.952 161.134 109.017 160.984 110.271C160.913 110.247 160.842 110.216 160.779 110.176C160.259 109.877 160.227 109.853 160.196 109.845C159.904 109.711 159.722 109.885 159.722 110.168C159.722 110.729 159.722 121.031 159.762 123.224C159.762 123.555 160.006 123.942 160.282 124.091C161.04 124.533 161.04 124.533 161.19 124.588C161.363 126.348 161.631 128.146 162.042 129.771C161.868 129.716 162.136 129.858 158.484 127.744C158.287 124.446 158.271 120.25 158.263 118.956C158.255 117.457 158.255 110.547 158.263 109.908C158.263 109.372 157.963 108.701 157.498 108.307C157.332 108.165 157.955 108.543 151.092 104.576C150.54 104.26 150.067 104.513 150.059 105.167C150.059 105.735 150.106 116.164 150.17 119.982H150.162C140.467 114.381 130.764 108.78 121.069 103.179C121.046 99.606 121.046 85.1624 121.069 84.8469C121.101 84.4209 121.132 84.0028 121.18 83.5926L121.172 83.6084Z" fill="#6687FC"/>
<path d="M172.904 127.602C172.486 123.989 171.847 120.273 170.916 116.716C170.608 115.533 170.064 113.695 169.969 113.474C169.867 113.237 169.63 113.024 169.362 112.945C167.753 112.456 161.055 110.295 160.992 110.271C160.921 110.247 160.85 110.216 160.787 110.176C160.267 109.877 160.235 109.853 160.204 109.845C159.912 109.711 159.73 109.884 159.73 110.168C159.73 110.728 159.73 121.031 159.77 123.224C159.77 123.555 160.014 123.942 160.29 124.091C161.048 124.533 161.048 124.533 161.197 124.588C161.316 124.628 169.938 127.365 172.241 128.051C172.454 128.114 172.699 128.099 172.833 127.917C172.88 127.862 172.88 127.854 172.896 127.775C172.904 127.728 172.92 127.657 172.912 127.602H172.904Z" fill="#102844"/>
<path d="M172.454 128.13C172.375 128.13 172.296 128.114 172.225 128.099C169.89 127.405 161.481 124.73 161.19 124.636H161.182C161.055 124.588 161.032 124.573 160.629 124.336L160.274 124.131C159.975 123.957 159.738 123.563 159.73 123.224C159.691 121.086 159.683 110.776 159.691 110.168C159.691 110.003 159.754 109.869 159.856 109.806C159.927 109.758 160.046 109.727 160.227 109.806C160.251 109.821 160.274 109.829 160.685 110.066L160.819 110.145C160.874 110.176 160.945 110.208 161.016 110.232C161.04 110.239 167.729 112.401 169.386 112.898C169.662 112.977 169.906 113.198 170.024 113.458C170.127 113.695 170.671 115.54 170.971 116.708C171.831 120.021 172.501 123.681 172.959 127.602C172.959 127.657 172.959 127.728 172.943 127.791C172.927 127.87 172.92 127.886 172.872 127.949C172.77 128.083 172.62 128.13 172.462 128.13H172.454ZM161.205 124.541C161.261 124.565 169.882 127.302 172.249 128.012C172.423 128.067 172.659 128.059 172.785 127.894C172.825 127.838 172.825 127.838 172.841 127.775C172.841 127.736 172.864 127.665 172.856 127.617C172.399 123.705 171.728 120.045 170.869 116.732C170.545 115.493 170.017 113.71 169.93 113.497C169.827 113.269 169.599 113.071 169.354 112.992C167.658 112.48 161.008 110.334 160.984 110.318C160.906 110.295 160.835 110.255 160.771 110.224L160.637 110.145C160.259 109.924 160.211 109.9 160.196 109.892C160.085 109.837 159.983 109.837 159.912 109.884C159.833 109.932 159.793 110.034 159.785 110.168C159.778 110.776 159.785 121.078 159.825 123.224C159.825 123.531 160.054 123.902 160.322 124.052L160.677 124.257C161.079 124.486 161.095 124.502 161.213 124.541H161.205Z" fill="#102844"/>
<path d="M158.949 131.672C156.228 130.102 153.506 128.533 150.793 126.963C153.514 128.533 156.236 130.102 158.949 131.672Z" fill="#A1DFF0"/>
<path d="M151.1 122.932C151.116 123.255 151.361 123.634 151.637 123.792C157.537 127.199 157.182 127.01 157.308 127.034C157.442 127.057 157.553 126.986 157.592 126.844C157.632 126.702 157.584 126.726 157.506 124.154C157.411 120.983 157.403 110.468 157.403 109.829C157.403 109.49 157.174 109.103 156.898 108.946C155.068 107.889 153.238 106.824 151.408 105.775C151.132 105.617 150.895 105.743 150.895 106.066C150.895 106.524 150.927 117.773 150.982 119.918C151.006 120.857 151.045 122.001 151.092 122.924L151.1 122.932ZM150.28 123.003C150.256 122.553 150.233 122.135 150.217 121.78C150.201 121.504 150.193 121.275 150.193 121.086C150.185 120.849 150.177 120.471 150.169 119.982C150.106 116.164 150.051 105.735 150.059 105.167C150.059 104.512 150.54 104.252 151.092 104.576C157.955 108.543 157.332 108.165 157.498 108.307C157.963 108.701 158.271 109.372 158.263 109.908C158.263 110.547 158.263 117.457 158.263 118.956C158.271 120.25 158.287 124.446 158.484 127.744C158.586 129.534 158.752 131.057 158.989 131.696C158.973 131.688 158.957 131.68 158.941 131.672C156.22 130.102 153.498 128.533 150.785 126.963C150.517 126.229 150.359 124.478 150.272 123.003H150.28Z" fill="#95AAF4"/>
<path d="M159.083 131.806L158.926 131.719L150.753 127.002V126.986C150.524 126.395 150.359 125.062 150.233 123.019C150.209 122.616 150.185 122.206 150.17 121.796C150.154 121.528 150.146 121.291 150.146 121.11C150.138 120.881 150.13 120.51 150.122 119.997C150.059 116.242 150.004 105.838 150.012 105.183C150.012 104.852 150.13 104.599 150.343 104.481C150.556 104.363 150.824 104.386 151.108 104.552C152.891 105.577 154.169 106.319 155.084 106.847C156.646 107.752 157.45 108.223 157.498 108.259C157.498 108.259 157.514 108.275 157.521 108.283C157.987 108.685 158.31 109.356 158.302 109.924C158.302 110.587 158.302 117.544 158.302 118.972V119.201C158.31 120.684 158.334 124.636 158.523 127.752C158.642 129.795 158.815 131.12 159.028 131.696L159.075 131.822L159.083 131.806ZM150.832 126.931L158.91 131.593C158.713 130.962 158.555 129.668 158.444 127.744C158.255 124.62 158.231 120.676 158.224 119.185V118.956C158.216 117.528 158.208 110.571 158.224 109.908C158.224 109.38 157.916 108.717 157.474 108.338C157.458 108.33 157.45 108.315 157.443 108.315C157.387 108.259 157.34 108.236 155.052 106.911C154.137 106.382 152.859 105.648 151.077 104.615C150.824 104.465 150.58 104.442 150.406 104.544C150.225 104.647 150.122 104.867 150.122 105.167C150.122 105.822 150.17 116.227 150.233 119.974C150.241 120.479 150.248 120.849 150.256 121.078C150.256 121.267 150.272 121.496 150.28 121.764C150.296 122.175 150.319 122.585 150.343 122.987C150.461 124.999 150.627 126.324 150.848 126.915L150.832 126.931ZM157.364 127.081C157.364 127.081 157.324 127.081 157.308 127.081H157.293C157.24 127.076 156.496 126.658 155.06 125.827C154.256 125.361 153.143 124.722 151.621 123.839C151.321 123.665 151.077 123.271 151.061 122.94C151.021 122.127 150.982 121.031 150.95 119.934C150.895 117.804 150.864 106.556 150.864 106.082C150.864 105.909 150.927 105.775 151.037 105.712C151.148 105.648 151.298 105.656 151.447 105.743C152.662 106.437 153.893 107.147 155.084 107.841C155.699 108.204 156.322 108.559 156.946 108.914C157.245 109.088 157.474 109.49 157.474 109.837C157.474 110.5 157.482 121.007 157.577 124.162C157.616 125.511 157.648 126.15 157.663 126.466C157.679 126.766 157.679 126.797 157.663 126.868C157.624 127.01 157.521 127.097 157.387 127.097L157.364 127.081ZM151.187 105.751C151.148 105.751 151.108 105.759 151.077 105.783C150.998 105.83 150.95 105.932 150.95 106.074C150.95 106.548 150.982 117.797 151.037 119.926C151.069 121.023 151.108 122.119 151.148 122.932C151.163 123.232 151.392 123.594 151.66 123.752C153.191 124.636 154.295 125.275 155.1 125.74C157.119 126.908 157.237 126.979 157.293 126.979C157.293 126.979 157.308 126.979 157.316 126.979C157.435 126.994 157.514 126.939 157.545 126.829C157.561 126.773 157.561 126.75 157.545 126.458C157.529 126.15 157.498 125.503 157.458 124.155C157.364 120.999 157.356 110.492 157.356 109.829C157.356 109.522 157.143 109.143 156.875 108.993C156.251 108.638 155.636 108.275 155.013 107.92C153.822 107.234 152.591 106.516 151.376 105.822C151.305 105.783 151.234 105.759 151.171 105.759L151.187 105.751Z" fill="#102844"/>
<path d="M151.416 105.775C153.254 106.824 155.076 107.889 156.906 108.946C157.174 109.104 157.411 109.49 157.411 109.829C157.411 110.468 157.411 120.983 157.514 124.155C157.585 126.726 157.64 126.702 157.6 126.844C157.561 126.986 157.458 127.05 157.316 127.034C157.19 127.018 157.545 127.199 151.645 123.792C151.369 123.634 151.124 123.255 151.108 122.932C151.061 122.009 151.021 120.865 150.998 119.926C150.943 117.781 150.911 106.532 150.911 106.074C150.911 105.743 151.148 105.625 151.424 105.783L151.416 105.775Z" fill="#102844"/>
<path d="M157.364 127.081C157.364 127.081 157.324 127.081 157.308 127.081H157.293C157.24 127.076 156.496 126.658 155.06 125.827C154.256 125.361 153.143 124.722 151.621 123.839C151.321 123.665 151.077 123.271 151.061 122.94C151.021 122.127 150.982 121.031 150.95 119.934C150.895 117.804 150.864 106.556 150.864 106.082C150.864 105.909 150.927 105.775 151.037 105.712C151.148 105.648 151.298 105.656 151.447 105.743C152.662 106.437 153.893 107.147 155.084 107.841C155.699 108.204 156.322 108.559 156.946 108.914C157.245 109.088 157.474 109.49 157.474 109.837C157.474 110.5 157.482 121.007 157.577 124.162C157.616 125.511 157.648 126.15 157.663 126.466C157.679 126.766 157.679 126.797 157.663 126.868C157.624 127.01 157.521 127.097 157.387 127.097L157.364 127.081ZM151.187 105.751C151.148 105.751 151.108 105.759 151.077 105.783C150.998 105.83 150.95 105.932 150.95 106.074C150.95 106.548 150.982 117.796 151.037 119.926C151.069 121.023 151.108 122.119 151.148 122.932C151.163 123.232 151.392 123.594 151.66 123.752C153.191 124.636 154.295 125.275 155.1 125.74C157.119 126.908 157.237 126.979 157.293 126.979C157.293 126.979 157.308 126.979 157.316 126.979C157.435 126.994 157.514 126.939 157.545 126.829C157.561 126.773 157.561 126.75 157.545 126.458C157.529 126.15 157.498 125.503 157.458 124.155C157.364 120.999 157.356 110.492 157.356 109.829C157.356 109.522 157.143 109.143 156.875 108.993C156.251 108.638 155.636 108.275 155.013 107.92C153.822 107.234 152.591 106.516 151.376 105.822C151.305 105.783 151.234 105.759 151.171 105.759L151.187 105.751Z" fill="#102844"/>
<path d="M150.793 126.963C141.09 121.362 131.387 115.761 121.685 110.161C121.409 109.419 121.274 107.684 121.219 106.879C121.211 106.753 121.196 106.508 121.18 106.209C130.882 111.809 140.577 117.41 150.28 123.011C150.367 124.478 150.517 126.237 150.793 126.971V126.963Z" fill="#102844"/>
<path d="M150.225 121.78C150.241 122.135 150.256 122.561 150.288 123.003C140.585 117.402 130.89 111.801 121.188 106.201C121.164 105.83 121.148 105.38 121.125 104.978C130.827 110.579 140.522 116.179 150.225 121.78Z" fill="#95AAF4"/>
<path d="M150.225 121.78C140.522 116.179 130.827 110.579 121.125 104.978C121.101 104.52 121.085 104.11 121.077 103.929C121.077 103.826 121.077 103.566 121.069 103.187C130.764 108.788 140.467 114.389 150.162 119.989H150.169C150.177 120.479 150.185 120.857 150.193 121.094C150.193 121.275 150.209 121.512 150.217 121.788L150.225 121.78Z" fill="#102844"/>
<path d="M148.434 117.142C148.379 117.157 148.363 117.15 148.3 117.142C148.245 117.126 148.205 117.118 148.15 117.079C136.846 110.555 137.414 110.878 137.375 110.855C137.083 110.657 136.901 110.287 136.901 110.011C136.87 108.204 136.862 103.242 136.862 99.9688C140.774 102.225 144.687 104.489 148.592 106.745H148.608C148.608 110.121 148.623 115.312 148.647 116.795C148.647 116.929 148.615 117.023 148.544 117.086C148.513 117.118 148.489 117.134 148.434 117.142Z" fill="#102844"/>
<path d="M148.371 117.197C148.371 117.197 148.324 117.197 148.284 117.189C148.221 117.173 148.182 117.158 148.119 117.126L139.828 112.338C138.177 111.381 137.346 110.899 137.335 110.894C137.059 110.705 136.846 110.334 136.846 110.011C136.807 107.912 136.807 101.791 136.807 99.9688V99.8899L136.878 99.9294C140.696 102.138 144.514 104.339 148.332 106.54L148.6 106.698H148.647V106.745C148.647 110.626 148.663 115.422 148.687 116.787C148.687 116.937 148.655 117.039 148.568 117.118C148.529 117.158 148.497 117.173 148.442 117.181C148.41 117.181 148.395 117.189 148.371 117.189V117.197ZM136.901 100.056C136.901 101.972 136.901 107.944 136.941 110.011C136.941 110.295 137.138 110.642 137.398 110.815H137.406C137.406 110.815 137.651 110.965 139.875 112.251L148.166 117.039C148.221 117.071 148.253 117.087 148.308 117.094C148.363 117.11 148.379 117.11 148.426 117.094C148.426 117.094 148.481 117.079 148.513 117.047C148.576 116.992 148.6 116.913 148.6 116.787C148.576 115.422 148.56 110.65 148.56 106.776L148.292 106.619C144.498 104.426 140.703 102.241 136.909 100.048L136.901 100.056Z" fill="#102844"/>
<path d="M140.459 68.3128C140.767 68.1787 141.129 68.0367 141.477 67.9105C141.729 67.8238 142.005 67.8238 142.257 67.9105L142.407 67.9657C157.08 76.4378 171.752 84.9099 186.424 93.382L186.669 93.5319C186.779 93.6029 186.874 93.6897 186.945 93.7843C187.395 94.3681 187.836 94.9676 188.27 95.5987C189.201 96.9318 190.045 98.896 190.487 100.908C190.526 101.121 190.408 101.31 190.187 101.436C189.722 99.3299 188.783 97.0659 187.545 95.4409C187.119 94.8414 186.582 94.1235 186.196 93.6345C185.58 93.2874 184.973 92.9561 184.366 92.6248C182.228 91.9227 180.169 91.3468 178.315 90.274C171.989 86.6217 146.691 72.0125 140.364 68.3602C140.396 68.3444 140.427 68.3286 140.459 68.3128Z" fill="#D7CDCA"/>
<path d="M137.225 96.6005C137.296 96.6163 137.304 96.6163 137.375 96.6636C148.679 103.187 148.118 102.864 148.15 102.888C148.434 103.085 148.608 103.455 148.608 103.747C148.608 103.929 148.608 105.136 148.608 106.753H148.592C144.679 104.497 140.767 102.241 136.862 99.9767C136.862 98.3675 136.862 97.1763 136.862 96.9633C136.862 96.8292 136.901 96.7267 136.972 96.6636C137.012 96.632 137.035 96.6163 137.083 96.6084C137.138 96.5926 137.154 96.5926 137.225 96.6084V96.6005Z" fill="#102844"/>
<path d="M148.647 106.792H148.576L148.284 106.627C144.466 104.426 140.648 102.217 136.83 100.016L136.807 100V99.9767C136.807 98.4543 136.807 97.1843 136.807 96.9634C136.807 96.8135 136.854 96.7031 136.933 96.6242C136.972 96.5847 137.004 96.569 137.067 96.5532C137.13 96.5374 137.154 96.5374 137.225 96.5532C137.296 96.569 137.319 96.5769 137.39 96.6163L140.885 98.6357C147.211 102.288 148.048 102.769 148.166 102.848C148.442 103.037 148.647 103.416 148.639 103.739C148.639 103.929 148.639 105.159 148.639 106.745V106.792H148.647ZM136.901 99.9452C140.711 102.146 144.521 104.347 148.332 106.548L148.552 106.674C148.552 105.128 148.552 103.929 148.552 103.739C148.552 103.448 148.371 103.101 148.119 102.927H148.111C148.024 102.872 147.219 102.398 140.845 98.7225L137.351 96.7031C137.28 96.6636 137.272 96.6636 137.209 96.6478C137.146 96.6321 137.138 96.6321 137.091 96.6478C137.051 96.6557 137.028 96.6715 137.004 96.6952C136.941 96.7504 136.909 96.8372 136.909 96.9634C136.909 97.1843 136.909 98.4385 136.909 99.9452H136.901Z" fill="#102844"/>
<path d="M123.878 88.9724C123.933 88.9566 123.949 88.9566 124.02 88.9724C124.091 88.9882 124.098 88.9882 124.169 89.0355C135.474 95.5592 134.913 95.2358 134.945 95.2594C135.229 95.4566 135.403 95.8274 135.403 96.1193C135.403 96.6793 135.403 106.982 135.442 109.174C135.442 109.309 135.41 109.403 135.339 109.466C135.308 109.498 135.284 109.514 135.229 109.522C135.174 109.537 135.158 109.529 135.095 109.522C135.04 109.506 135.008 109.498 134.945 109.458C124.367 103.353 124.169 103.235 124.177 103.235C123.886 103.037 123.704 102.667 123.696 102.39C123.649 99.7006 123.649 89.9821 123.657 89.3353C123.657 89.2012 123.696 89.0986 123.767 89.0355C123.807 89.004 123.83 88.9882 123.878 88.9803V88.9724Z" fill="#102844"/>
<path d="M135.166 109.569C135.166 109.569 135.119 109.569 135.079 109.561C135.016 109.545 134.977 109.529 134.914 109.498L127.27 105.088C125.763 104.221 124.982 103.771 124.58 103.534C124.296 103.369 124.185 103.306 124.146 103.274C123.822 103.061 123.657 102.667 123.649 102.398C123.602 99.7321 123.602 90.0689 123.61 89.3432C123.61 89.1933 123.657 89.0828 123.736 89.004C123.775 88.9645 123.807 88.9487 123.87 88.933C123.933 88.9172 123.957 88.9172 124.028 88.933C124.106 88.9487 124.122 88.9566 124.193 88.9961L127.853 91.1102C134.038 94.6757 134.858 95.149 134.969 95.2279C135.245 95.4172 135.45 95.7958 135.442 96.1193C135.434 96.7267 135.442 107.029 135.481 109.167C135.481 109.316 135.45 109.419 135.363 109.498C135.324 109.537 135.292 109.553 135.237 109.561C135.205 109.561 135.19 109.569 135.166 109.569ZM124.209 103.203C124.296 103.25 124.801 103.55 127.325 105.002L134.969 109.411C135.024 109.443 135.056 109.458 135.111 109.466C135.166 109.482 135.182 109.482 135.229 109.466C135.268 109.458 135.284 109.451 135.316 109.419C135.379 109.364 135.403 109.285 135.403 109.159C135.363 107.021 135.355 96.7109 135.363 96.1035C135.363 95.8116 135.182 95.4645 134.929 95.291H134.921C134.843 95.2358 134.054 94.7782 127.822 91.1811L124.162 89.0671C124.099 89.0276 124.091 89.0276 124.02 89.0118C123.957 88.9961 123.957 88.9961 123.901 89.0118C123.862 89.0197 123.838 89.0355 123.807 89.0592C123.744 89.1144 123.712 89.2012 123.712 89.3274C123.704 90.0531 123.704 99.7164 123.751 102.383C123.751 102.627 123.917 102.99 124.209 103.187H124.225L124.209 103.203Z" fill="#102844"/>
<path d="M177.763 123.058C177.305 120.794 176.714 118.404 176.091 116.045C175.815 116.203 175.42 116.25 175.12 116.219C175.041 116.211 174.994 116.211 174.813 116.156C174.529 116.077 173.906 115.895 172.288 115.406C172.454 115.99 172.636 116.645 172.809 117.339C173.874 121.543 174.497 125.661 174.978 129.952C175.01 130.244 175.286 130.568 175.649 130.67C176.028 130.781 177.061 131.073 177.676 131.175C177.802 131.199 177.913 131.207 178 131.207C178.252 131.207 178.552 131.151 178.773 131.025C178.765 128.406 178.307 125.614 177.779 123.05L177.763 123.058Z" fill="#95AAF4"/>
<path d="M177.992 131.262C177.905 131.262 177.794 131.246 177.66 131.222C177.053 131.12 176.027 130.828 175.641 130.718C175.27 130.615 174.963 130.284 174.923 129.952C174.363 124.92 173.693 121.031 172.754 117.347C172.596 116.724 172.423 116.077 172.233 115.414L172.217 115.351H172.296C173.882 115.824 174.537 116.022 174.821 116.1C174.994 116.148 175.034 116.148 175.112 116.156H175.128C175.396 116.187 175.791 116.156 176.075 115.99L176.13 115.958L176.146 116.022C176.832 118.609 177.4 120.968 177.826 123.042C178.244 125.101 178.804 128.17 178.82 131.025V131.049L178.796 131.065C178.591 131.183 178.299 131.254 178.007 131.254L177.992 131.262ZM172.344 115.477C172.525 116.116 172.691 116.739 172.841 117.331C173.779 121.023 174.45 124.92 175.01 129.952C175.041 130.244 175.325 130.536 175.649 130.631C176.043 130.741 177.061 131.033 177.668 131.136C177.794 131.159 177.905 131.167 177.984 131.167C178.244 131.167 178.52 131.104 178.71 131.002C178.694 128.162 178.134 125.117 177.716 123.066C177.298 121.007 176.737 118.672 176.059 116.108C175.759 116.258 175.381 116.282 175.112 116.258H175.097C175.018 116.25 174.97 116.242 174.789 116.195C174.505 116.116 173.866 115.927 172.344 115.477Z" fill="#091B32"/>
<path d="M169.891 105.633C171.334 104.733 172.786 103.858 174.245 102.99C174.971 102.556 175.704 102.13 176.438 101.696L178.639 100.418L180.847 99.1485C181.589 98.7304 182.323 98.3123 183.064 97.8942C184.547 97.058 186.03 96.2455 187.537 95.4409C186.093 96.3402 184.642 97.2237 183.182 98.0835C182.457 98.5174 181.723 98.9434 180.989 99.3772L178.789 100.655L176.58 101.925C175.838 102.343 175.105 102.761 174.363 103.179C172.88 104.016 171.397 104.828 169.898 105.633H169.891Z" fill="white"/>
<path d="M58.5068 47.4639C58.7277 45.1684 59.2168 43.575 60.2817 42.1945L114.238 73.3456C113.173 74.7261 112.684 76.3274 112.463 78.6229C94.4777 68.2419 76.4923 57.8529 58.5068 47.4718V47.4639Z" fill="#D7CDCA"/>
<path d="M102.476 78.1023C102.476 77.7631 102.721 77.6527 102.989 77.8105C107.856 80.6266 107.525 80.4057 107.659 80.5319C107.856 80.7213 108.014 81.0289 108.006 81.2971C108.006 81.9361 108.006 84.7128 108.006 85.3596C108.014 98.5884 108.369 98.1782 108.156 98.4148C108.132 98.4385 108.093 98.4701 108.061 98.4779C108.03 98.4858 107.975 98.4937 107.935 98.4779C107.817 98.4622 108.125 98.6278 103.242 95.8038C102.966 95.646 102.721 95.2674 102.697 94.944C102.547 92.2935 102.5 88.7832 102.484 86.1169C102.484 85.123 102.469 78.8754 102.476 78.1023Z" fill="#102844"/>
<path d="M107.975 98.5331C107.975 98.5331 107.943 98.5331 107.927 98.5331H107.912C107.859 98.5331 107.131 98.1255 105.727 97.3104C105.096 96.9475 104.275 96.4742 103.21 95.8589C102.91 95.6854 102.666 95.291 102.642 94.9597C102.524 92.8456 102.453 89.9506 102.429 86.1326C102.429 85.0834 102.414 78.8674 102.421 78.1101C102.421 77.9366 102.485 77.8025 102.595 77.7394C102.705 77.6763 102.855 77.692 103.005 77.7709C104.764 78.7885 105.853 79.4117 106.515 79.7982C107.241 80.2137 107.625 80.4425 107.667 80.4845L107.683 80.5003C107.904 80.7054 108.046 81.0288 108.046 81.297C108.046 81.936 108.046 84.6811 108.046 85.3595C108.046 93.6502 108.196 96.5768 108.243 97.6733C108.264 98.1203 108.246 98.3779 108.188 98.4463C108.188 98.4463 108.109 98.5094 108.069 98.5252C108.046 98.5331 108.006 98.541 107.975 98.541V98.5331ZM102.524 78.1022C102.524 78.8516 102.524 85.0677 102.532 86.1168C102.555 89.9348 102.626 92.8219 102.745 94.9439C102.761 95.2436 102.997 95.6065 103.265 95.7643C104.33 96.3796 105.151 96.8529 105.782 97.2157C107.754 98.3517 107.872 98.4226 107.927 98.4305C107.927 98.4305 107.943 98.4305 107.951 98.4305C107.983 98.4305 108.03 98.4305 108.054 98.4305C108.077 98.4226 108.109 98.399 108.133 98.3832C108.175 98.3306 108.185 98.0966 108.164 97.6811C108.109 96.5768 107.967 93.6581 107.967 85.3595C107.967 84.6811 107.967 81.9439 107.967 81.297C107.967 81.0525 107.833 80.7606 107.636 80.5713L107.62 80.5555C107.565 80.5003 107.557 80.5003 106.492 79.885C105.821 79.4985 104.741 78.8753 102.981 77.8577C102.863 77.7867 102.753 77.7788 102.666 77.8261C102.587 77.8735 102.54 77.976 102.54 78.118L102.524 78.1022Z" fill="#102844"/>
<path d="M102.847 99.0774C105.143 100.403 107.43 101.728 109.726 103.045C109.387 102.604 109.197 100.671 109.103 99.1958C110.247 99.8584 111.39 100.521 112.534 101.176C112.668 103.25 112.865 104.726 113.173 105.057L102.863 99.1011C102.863 99.1011 102.847 99.0853 102.839 99.0695L102.847 99.0774Z" fill="#102844"/>
<path d="M96.1579 73.9688C96.2131 73.953 96.2368 73.953 96.292 73.9688C96.4024 73.9924 96.008 73.7716 100.962 76.635C101.238 76.7928 101.467 77.1872 101.467 77.5185C101.467 78.2995 101.467 84.5471 101.475 85.5331C101.49 88.1757 101.538 91.7255 101.688 94.3602C101.703 94.6836 101.49 94.794 101.214 94.6363C96.3314 91.8122 96.6391 92.0094 96.5129 91.8832C96.3314 91.7097 96.1737 91.4257 96.1579 91.1733C95.9134 86.8505 95.9134 78.7807 95.937 74.3238C95.937 74.1896 95.9765 74.0871 96.0475 74.024C96.0869 73.9924 96.1106 73.9767 96.1579 73.9688Z" fill="#102844"/>
<path d="M101.443 94.7625C101.364 94.7625 101.277 94.7388 101.191 94.6836C100.094 94.0446 99.2581 93.5635 98.6191 93.2006C97.257 92.4118 96.5497 91.9937 96.4971 91.9463L96.4814 91.9306C96.2684 91.7255 96.1264 91.4336 96.1106 91.1891C95.8582 86.6454 95.874 77.8893 95.8897 74.3395C95.8897 74.1896 95.9292 74.0792 96.0159 74.0082C96.0554 73.9688 96.0948 73.953 96.1501 73.9372C96.2132 73.9214 96.2368 73.9214 96.3078 73.9372C96.3078 73.9372 96.3078 73.9372 96.3157 73.9372C96.3578 73.9372 97.3044 74.4736 99.1555 75.5464L100.986 76.6114C101.285 76.7849 101.514 77.1872 101.514 77.5343C101.514 78.2995 101.514 84.5234 101.522 85.5489C101.546 89.3432 101.617 92.3092 101.735 94.376C101.743 94.5416 101.696 94.6678 101.593 94.7309C101.546 94.7546 101.498 94.7704 101.443 94.7704V94.7625ZM96.1658 74.0161C96.1264 74.024 96.1027 74.0398 96.0791 74.0634C96.016 74.1187 95.9844 74.2054 95.9844 74.3238C95.9686 77.8735 95.9528 86.6217 96.2053 91.1654C96.221 91.4178 96.3867 91.6939 96.5445 91.8438L96.5602 91.8596C96.6233 91.9306 96.647 91.9384 98.6585 93.098C99.2975 93.4688 100.134 93.95 101.23 94.5811C101.348 94.652 101.459 94.6678 101.538 94.6205C101.609 94.581 101.64 94.4864 101.632 94.3523C101.514 92.2855 101.443 89.3116 101.419 85.5252C101.419 84.4918 101.404 78.2758 101.412 77.5028C101.412 77.1951 101.199 76.8165 100.93 76.6666L99.1003 75.6017C96.5524 74.1265 96.3394 74.0082 96.2999 74.0003C96.2999 74.0003 96.2842 74.0003 96.2763 74.0003C96.221 73.9846 96.2053 73.9846 96.1579 74.0003L96.1658 74.0161Z" fill="#102844"/>
<path d="M79.4899 76.848C79.4899 77.1084 79.6556 77.416 79.837 77.5896C79.979 77.7237 79.2296 77.274 90.7387 83.916C90.8255 83.9712 90.8728 83.9791 90.9359 83.987C90.9753 83.987 91.0463 83.987 91.0937 83.9555C91.1489 83.9239 91.1962 83.8608 91.2199 83.7819C91.2357 83.7346 91.2357 83.6873 91.2357 83.632C91.1962 81.7152 91.1804 71.0107 91.1883 70.5847C91.1883 70.2534 90.9596 69.859 90.6914 69.7012C79.269 63.1065 79.9159 63.4773 79.8606 63.4536C79.766 63.4221 79.7265 63.43 79.6713 63.4378C79.6161 63.4536 79.5767 63.4694 79.5293 63.5246C79.4583 63.6035 79.4426 63.6903 79.4426 63.8007C79.4426 64.3371 79.4741 75.8383 79.4899 76.848ZM112.534 101.176C111.39 100.513 110.247 99.8505 109.103 99.1958C109.055 98.47 109.032 97.8547 109.016 97.5786C108.835 93.4767 108.85 81.6363 108.85 81.3365C108.85 80.6897 108.417 79.9008 107.849 79.5774C105.443 78.1891 103.526 77.0847 102.003 76.2012C95.5979 72.5016 96.0791 72.7777 96.0081 72.7461C95.5033 72.5173 95.101 72.7934 95.0931 73.393C95.0931 73.9294 95.0931 80.6739 95.0931 82.1727C95.1088 84.4682 95.1483 88.3572 95.3376 91.2522C88.8139 87.4816 82.2824 83.7109 75.7508 79.9482C75.7035 79.2224 75.6798 78.6072 75.664 78.3311C75.4826 74.2291 75.4984 62.3887 75.4984 62.0889C75.4984 61.45 75.0645 60.6533 74.4966 60.3298C72.0906 58.9415 70.1737 57.8371 68.6513 56.9536C62.2381 53.254 62.7193 53.5301 62.6561 53.4985C62.4984 53.4275 62.3485 53.4117 62.2302 53.4275C62.1434 53.4433 62.033 53.4906 61.9699 53.538C61.8989 53.5932 61.8358 53.6878 61.7963 53.7904C61.7569 53.9008 61.7411 54.0113 61.7411 54.1454C61.7411 54.6818 61.7411 61.4263 61.7411 62.9172C61.7569 65.2048 61.7963 69.0938 61.9856 72.0046C60.8418 71.342 59.698 70.6794 58.5542 70.0246C58.2939 66.0094 58.2939 59.7303 58.2939 55.0841C58.2939 51.8499 58.2939 49.4123 58.4832 47.4639C76.4687 57.845 94.4541 68.234 112.44 78.615C112.25 80.5556 112.25 83.001 112.25 86.2352C112.25 90.8814 112.25 97.1527 112.511 101.176H112.534Z" fill="#6687FC"/>
<path d="M79.8527 63.4615C79.9079 63.4773 79.2532 63.1065 90.6834 69.7091C90.9516 69.8669 91.1883 70.2613 91.1804 70.5926C91.1804 71.0107 91.1962 81.7231 91.2277 83.6399C91.2277 83.6952 91.2277 83.7425 91.2119 83.7898C91.1883 83.8687 91.1409 83.9318 91.0857 83.9634C91.0384 83.987 90.9674 84.0028 90.928 83.9949C90.8649 83.987 90.8175 83.9791 90.7308 83.9239C79.2216 77.2819 79.971 77.7316 79.829 77.5975C79.6476 77.4239 79.482 77.1163 79.482 76.856C79.4662 75.8462 79.4267 64.345 79.4346 63.8086C79.4346 63.6982 79.4504 63.6114 79.5214 63.5325C79.5687 63.4773 79.6082 63.4615 79.6634 63.4457C79.7107 63.4379 79.7502 63.43 79.8527 63.4615Z" fill="#102844"/>
<path d="M90.9595 84.0343C90.9595 84.0343 90.9359 84.0343 90.928 84.0343C90.8649 84.0264 90.8097 84.0185 90.715 83.9554C87.5123 82.1095 85.2641 80.808 83.6786 79.8929C81.1491 78.4362 79.8659 77.6842 79.8291 77.6368C79.8291 77.6368 79.8212 77.629 79.8133 77.6211C79.6397 77.4554 79.4504 77.1478 79.4504 76.848C79.4268 75.7752 79.3952 64.2897 79.4031 63.8007C79.4031 63.6981 79.4189 63.5956 79.4978 63.493C79.5451 63.4378 79.5924 63.4062 79.6634 63.3905C79.7265 63.3747 79.7738 63.3747 79.8764 63.4062C79.9395 63.4299 80.3024 63.6429 83.1106 65.26C84.712 66.183 87.1179 67.5713 90.7229 69.6538C91.0148 69.8195 91.2514 70.2376 91.2435 70.5768C91.2435 71.0185 91.2593 81.723 91.2908 83.6241C91.2908 83.6872 91.2908 83.7424 91.2751 83.7898C91.2514 83.8765 91.1962 83.9475 91.1331 83.987C91.0857 84.0185 91.0226 84.0264 90.9753 84.0264L90.9595 84.0343ZM79.7265 63.4851C79.7265 63.4851 79.695 63.4851 79.6713 63.4851C79.6319 63.493 79.5924 63.5088 79.553 63.5561C79.4899 63.6271 79.482 63.706 79.4741 63.8007C79.4741 64.2897 79.5056 75.7752 79.5214 76.848C79.5214 77.1083 79.695 77.4002 79.8527 77.558C79.8606 77.5658 79.8685 77.5737 79.8764 77.5816C79.9237 77.6368 80.0657 77.7157 83.7101 79.814C85.2957 80.7291 87.5518 82.0307 90.7466 83.8765C90.8333 83.9239 90.8728 83.9317 90.928 83.9396C90.9595 83.9396 91.0226 83.9396 91.0542 83.916C91.0936 83.8923 91.1331 83.845 91.1567 83.774C91.1646 83.7345 91.1725 83.6951 91.1725 83.6399C91.1331 81.7388 91.1173 71.0343 91.1252 70.5925C91.1252 70.2849 90.9122 69.9063 90.6519 69.7485C87.0469 67.666 84.6488 66.2776 83.0396 65.3547C80.326 63.7849 79.8922 63.5404 79.837 63.5088C79.837 63.5088 79.837 63.5088 79.8291 63.5088C79.7738 63.493 79.7423 63.4851 79.7186 63.4851H79.7265Z" fill="#102844"/>
<path d="M69.6452 58.5628C74.5044 61.379 74.181 61.1581 74.3151 61.2843C74.5123 61.4736 74.6701 61.7734 74.6622 62.0495C74.6622 62.6884 74.6622 65.4651 74.6622 66.112C74.6701 79.3329 75.0251 78.9306 74.8121 79.1672C74.7569 79.2303 74.6701 79.2461 74.5912 79.2382C74.4729 79.2224 74.7726 79.3802 69.8976 76.5641C69.6215 76.4063 69.377 76.0277 69.3533 75.7042C69.2035 73.0459 69.1561 69.5277 69.1403 66.8772C69.1403 65.8832 69.1246 59.6357 69.1325 58.8626C69.1325 58.5392 69.3612 58.4051 69.6452 58.5707V58.5628Z" fill="#102844"/>
<path d="M74.6386 79.2855C74.6386 79.2855 74.607 79.2855 74.5834 79.2855H74.5676C74.515 79.2802 73.8234 78.8911 72.4929 78.118C71.8461 77.7473 70.9942 77.2503 69.8661 76.6035C69.5664 76.4299 69.3218 76.0355 69.2982 75.7042C69.1798 73.6059 69.1088 70.632 69.0852 66.8771C69.0852 65.828 69.0694 59.6119 69.0773 58.8547C69.0773 58.6811 69.1404 58.547 69.2508 58.4839C69.3613 58.4208 69.5033 58.4366 69.6531 58.5234C71.4201 59.5488 72.5008 60.1641 73.1713 60.5507C73.8918 60.9661 74.2731 61.1949 74.3152 61.2369L74.3309 61.2527C74.5518 61.4578 74.6938 61.7812 74.6938 62.0494C74.6938 62.6884 74.6938 65.4336 74.6938 66.112C74.6938 74.4026 74.8437 77.3213 74.891 78.4257C74.912 78.8727 74.8936 79.1304 74.8358 79.1987C74.7885 79.254 74.7096 79.2855 74.6228 79.2855H74.6386ZM69.4244 58.5391C69.3849 58.5391 69.3455 58.547 69.3139 58.5628C69.2351 58.6101 69.1877 58.7127 69.1877 58.8547C69.1877 59.6041 69.1877 65.8201 69.1956 66.8692C69.2193 70.6241 69.2903 73.598 69.4086 75.6963C69.4244 75.9961 69.661 76.3589 69.9292 76.5167C71.0573 77.1714 71.9092 77.6605 72.556 78.0313C74.4256 79.112 74.536 79.1751 74.5912 79.183H74.607C74.6465 79.183 74.7332 79.183 74.7806 79.1277C74.8226 79.0804 74.8331 78.8438 74.8121 78.4178C74.7569 77.3134 74.6149 74.3868 74.6149 66.0962C74.6149 65.4178 74.6149 62.6805 74.6149 62.0337C74.6149 61.7891 74.4808 61.4973 74.2836 61.3079L74.2678 61.2922C74.2126 61.2369 74.2047 61.2369 73.1398 60.6217C72.4693 60.2351 71.3886 59.6119 69.6216 58.5944C69.5506 58.5549 69.4796 58.5312 69.4165 58.5312L69.4244 58.5391Z" fill="#102844"/>
<path d="M69.5032 79.8298C71.7987 81.155 74.0863 82.4803 76.3818 83.7976C76.0426 83.3559 75.8533 81.4232 75.7586 79.9481C82.2902 83.7187 88.8139 87.4894 95.3454 91.2521C95.3928 91.97 95.448 92.6247 95.5111 93.1848C95.5584 93.6186 95.7004 94.7703 95.9607 95.1016C98.2562 96.4269 100.544 97.7521 102.839 99.0695C102.839 99.0774 102.855 99.0853 102.863 99.101L69.5268 79.8534C69.5268 79.8534 69.5111 79.8377 69.5032 79.8219V79.8298Z" fill="#102844"/>
<path d="M62.9558 54.7212C63.0741 54.7448 62.6955 54.5397 67.6257 57.3874C67.9018 57.5452 68.1306 57.9396 68.1306 58.2709C68.0438 75.7121 68.5408 75.1441 68.2647 75.4044C68.2331 75.436 68.2095 75.4439 68.1621 75.4597C68.1148 75.4675 68.0911 75.4675 68.028 75.4597C67.9728 75.4439 67.9334 75.4281 67.8782 75.3966C63.0031 72.5804 63.3029 72.7697 63.1767 72.6435C62.9953 72.47 62.8375 72.186 62.8217 71.9257C62.5772 67.6029 62.5772 59.541 62.6008 55.0762C62.6008 54.9421 62.6403 54.8474 62.7113 54.7764C62.7507 54.7448 62.7744 54.7291 62.8217 54.7212C62.8769 54.7054 62.9006 54.7054 62.9558 54.7212Z" fill="#102844"/>
<path d="M68.0991 75.5149C68.0991 75.5149 68.0517 75.5149 68.0123 75.4991C67.9492 75.4834 67.9097 75.4676 67.8466 75.4282C66.8212 74.8365 66.0323 74.379 65.4091 74.024C63.9524 73.1879 63.2004 72.7408 63.1531 72.683L63.1373 72.6672C62.9243 72.4621 62.7823 72.1703 62.7665 71.9178C62.522 67.5319 62.522 59.4779 62.5457 55.0683C62.5457 54.9184 62.5851 54.808 62.6719 54.737C62.7113 54.6975 62.7508 54.6818 62.806 54.666C62.8612 54.6502 62.8928 54.6502 62.9637 54.666C62.9637 54.666 62.9716 54.666 62.9795 54.666C63.0216 54.666 63.5869 54.9842 64.6755 55.6205C65.346 56.007 66.3005 56.5592 67.6415 57.3401C67.9334 57.5058 68.1701 57.9239 68.1701 58.2631C68.1148 69.4961 68.3042 73.322 68.3673 74.5762C68.3936 75.0705 68.3699 75.3519 68.2963 75.4203C68.2568 75.4597 68.2174 75.4755 68.1622 75.4913C68.1385 75.4913 68.1148 75.4991 68.0991 75.4991V75.5149ZM62.8849 54.7607C62.8849 54.7607 62.8533 54.7607 62.8296 54.7685C62.7902 54.7764 62.7744 54.7843 62.7429 54.8159C62.6798 54.8711 62.6482 54.9579 62.6482 55.0762C62.6324 58.6259 62.6167 67.3741 62.8691 71.9178C62.8849 72.1781 63.0505 72.4464 63.2083 72.6041L63.2241 72.6199C63.2951 72.6909 63.3108 72.6988 65.4644 73.9451C66.0796 74.3001 66.8764 74.7576 67.9019 75.3493C67.9571 75.3808 67.9886 75.3966 68.0438 75.4045C68.0991 75.4203 68.1148 75.4203 68.1543 75.4045C68.1937 75.3966 68.2095 75.3887 68.2332 75.365C68.291 75.3125 68.3068 75.0548 68.2805 74.592C68.2174 73.3298 68.0281 69.504 68.0833 58.271C68.0833 57.9633 67.8703 57.5847 67.6021 57.4348C66.2532 56.6539 65.3066 56.1096 64.6361 55.7151C63.1057 54.8316 63.0111 54.7764 62.9716 54.7685C62.9716 54.7685 62.9559 54.7685 62.948 54.7685C62.9243 54.7685 62.9006 54.7607 62.8849 54.7607Z" fill="#102844"/>
<path d="M69.5269 79.8535L59.2168 73.8978C58.9091 73.5665 58.7119 72.0914 58.5778 70.0167C59.7216 70.6794 60.8654 71.342 62.0093 71.9967C62.0566 72.7145 62.1118 73.3693 62.1749 73.9294C62.2222 74.3632 62.3642 75.507 62.6245 75.8541C64.9201 77.1794 67.2077 78.5046 69.5032 79.822C69.5032 79.8298 69.519 79.8377 69.5269 79.8535Z" fill="#102844"/>
<path d="M133.699 62.5623C133.549 62.4834 133.383 62.4361 133.194 62.4045C132.72 62.5465 132.089 62.791 131.316 63.146C129.557 63.9506 127.025 65.2995 123.72 67.2164C118.947 69.9694 115.784 72.0204 114.246 73.3535L60.2896 42.2024C61.8278 40.8693 64.991 38.8183 69.7714 36.0574C73.0608 34.1563 75.5851 32.8074 77.3363 32.0028C78.1251 31.6478 78.7641 31.3954 79.2453 31.2534L79.7896 31.4427C97.7592 41.8159 115.737 52.197 133.706 62.5702L133.699 62.5623Z" fill="#E6E0DE"/>
<path d="M102.484 86.1248C102.5 88.791 102.548 92.3013 102.697 94.9518C102.713 95.2753 102.966 95.6539 103.242 95.8117C108.132 98.6357 107.817 98.47 107.935 98.4858C107.975 98.4858 108.03 98.4858 108.061 98.4858C108.093 98.4779 108.132 98.4543 108.156 98.4227C108.369 98.1782 108.014 98.5884 108.006 85.3675C108.006 84.7285 108.006 81.9518 108.006 81.305C108.006 81.0368 107.856 80.7291 107.659 80.5398C107.533 80.4136 107.864 80.6345 102.989 77.8183C102.721 77.6606 102.484 77.7789 102.477 78.1102C102.477 78.8911 102.477 85.1387 102.484 86.1248ZM102.003 76.1933C103.526 77.0768 105.443 78.1812 107.848 79.5695C108.409 79.893 108.85 80.6897 108.85 81.3286C108.85 81.6284 108.835 93.4609 109.016 97.5708C109.024 97.8547 109.055 98.4621 109.103 99.1879C109.197 100.663 109.379 102.596 109.726 103.037C107.43 101.712 105.143 100.387 102.847 99.0695C102.169 98.1939 102.066 91.5283 102.043 90.4712C101.995 88.3019 101.987 76.4931 101.987 76.217L102.003 76.1854V76.1933Z" fill="#95AAF4"/>
<path d="M109.694 103.085L102.808 99.1089C102.374 98.541 102.106 95.7091 101.995 90.6763V90.4791C101.94 88.2072 101.94 76.2879 101.94 76.2248V76.209L101.988 76.1223L107.872 79.5222C108.44 79.8535 108.898 80.6581 108.898 81.3286C108.898 81.439 108.882 93.4293 109.063 97.5628C109.079 97.9336 109.103 98.5094 109.15 99.1799C109.292 101.349 109.497 102.667 109.758 103.006L109.694 103.077V103.085ZM102.879 99.038L109.592 102.911C109.363 102.406 109.182 101.16 109.055 99.1957C109.016 98.5173 108.984 97.9494 108.969 97.5786C108.787 93.4451 108.803 81.4469 108.803 81.3365C108.803 80.6975 108.369 79.9245 107.825 79.6168L102.035 76.2722C102.035 77.0294 102.035 88.2861 102.09 90.4791V90.6763C102.224 96.8765 102.587 98.6514 102.879 99.038ZM107.975 98.5331C107.975 98.5331 107.943 98.5331 107.927 98.5331H107.912C107.859 98.5331 107.131 98.1255 105.727 97.3104C105.096 96.9475 104.275 96.4742 103.21 95.8589C102.91 95.6854 102.666 95.291 102.642 94.9597C102.524 92.8456 102.453 89.9506 102.429 86.1326C102.429 85.0835 102.413 78.8674 102.421 78.1101C102.421 77.9366 102.484 77.8025 102.595 77.7394C102.705 77.6763 102.855 77.6921 103.005 77.7709C104.764 78.7885 105.853 79.4117 106.515 79.7982C107.241 80.2137 107.625 80.4425 107.667 80.4845L107.683 80.5003C107.904 80.7054 108.046 81.0288 108.046 81.297C108.046 81.936 108.046 84.6811 108.046 85.3595C108.046 93.6502 108.196 96.5768 108.243 97.6733C108.264 98.1203 108.246 98.378 108.188 98.4463C108.188 98.4463 108.109 98.5094 108.069 98.5252C108.046 98.5331 108.006 98.541 107.975 98.541V98.5331ZM102.761 77.7867C102.721 77.7867 102.682 77.7946 102.65 77.8104C102.571 77.8577 102.524 77.9603 102.524 78.1023C102.524 78.8516 102.524 85.0677 102.532 86.1168C102.555 89.9348 102.626 92.8219 102.745 94.9439C102.761 95.2437 102.997 95.6065 103.265 95.7643C104.33 96.3796 105.151 96.8529 105.782 97.2157C107.754 98.3517 107.872 98.4227 107.927 98.4305C107.927 98.4305 107.943 98.4305 107.951 98.4305C107.983 98.4305 108.03 98.4305 108.054 98.4305C108.077 98.4227 108.109 98.399 108.133 98.3832C108.175 98.3306 108.185 98.0966 108.164 97.6812C108.109 96.5768 107.967 93.6581 107.967 85.3595C107.967 84.6811 107.967 81.9439 107.967 81.297C107.967 81.0525 107.833 80.7606 107.636 80.5713L107.62 80.5555C107.565 80.5003 107.557 80.5003 106.492 79.885C105.821 79.4985 104.741 78.8753 102.981 77.8577C102.91 77.8183 102.839 77.7946 102.776 77.7946L102.761 77.7867Z" fill="#102844"/>
<path d="M96.1579 91.1733C96.1737 91.4257 96.3315 91.7097 96.5129 91.8833C96.6391 92.0095 96.3315 91.8123 101.214 94.6363C101.49 94.7941 101.703 94.6836 101.688 94.3602C101.538 91.7255 101.49 88.1678 101.475 85.5331C101.475 84.5392 101.459 78.2916 101.467 77.5186C101.467 77.1872 101.238 76.8007 100.962 76.6351C96.0081 73.7637 96.4025 73.9846 96.292 73.9688C96.2289 73.953 96.2053 73.953 96.1579 73.9688C96.1106 73.9767 96.0869 73.9925 96.0475 74.024C95.9765 74.0871 95.9371 74.1897 95.9371 74.3238C95.9134 78.7807 95.9134 86.8426 96.1579 91.1733ZM95.093 73.3929C95.093 72.7855 95.5032 72.5173 96.0081 72.7461C96.0791 72.7777 95.59 72.4937 102.003 76.2012L101.987 76.2328C101.987 76.501 101.987 88.3177 102.043 90.487C102.066 91.5441 102.169 98.2097 102.847 99.0853C100.552 97.7601 98.2641 96.4348 95.9686 95.1175C95.7083 94.7783 95.5663 93.6345 95.519 93.2006C95.4559 92.6405 95.4007 91.9858 95.3533 91.268C95.1719 88.365 95.1246 84.484 95.1088 82.1885C95.1009 80.6897 95.1009 73.9451 95.1088 73.4087L95.093 73.3929Z" fill="#95AAF4"/>
<path d="M102.824 99.1168C100.528 97.7916 98.2405 96.4663 95.945 95.149L95.9293 95.1332C95.7478 94.8966 95.5901 94.2418 95.4638 93.1927C95.4007 92.6563 95.3455 92.0015 95.2982 91.26C95.1168 88.4518 95.0694 84.7285 95.0536 82.1726C95.0458 80.6896 95.0458 73.9135 95.0536 73.3929C95.0536 73.0774 95.1641 72.8328 95.3613 72.7066C95.5427 72.5883 95.7794 72.5883 96.0397 72.7066C96.0397 72.7066 98.0381 73.8583 102.035 76.1617L102.074 76.1854L102.035 76.2485C102.035 76.6745 102.035 88.2546 102.09 90.487V90.6842C102.224 96.9239 102.595 98.683 102.887 99.0537L102.824 99.1247V99.1168ZM96.0002 95.0701C98.2405 96.3638 100.481 97.6575 102.713 98.9512C102.335 98.1229 102.09 95.3462 101.995 90.6842V90.487C101.94 88.2151 101.94 76.2958 101.94 76.2327V76.2169C96.4578 73.0458 96.0397 72.8092 96.0081 72.7934C96.0081 72.7934 96.0081 72.7934 95.9924 72.7934C95.7715 72.6908 95.5585 72.6908 95.4086 72.7934C95.243 72.9038 95.1483 73.1168 95.1483 73.4008C95.1483 73.9214 95.1483 80.6975 95.1483 82.1726C95.1641 84.7285 95.2114 88.4518 95.3928 91.2521C95.4402 91.9936 95.4954 92.6405 95.5585 93.1769C95.7084 94.4469 95.874 94.9044 95.9924 95.0701H96.0002ZM101.443 94.7625C101.364 94.7625 101.278 94.7388 101.191 94.6836C100.094 94.0446 99.2581 93.5634 98.6192 93.2006C97.2571 92.4117 96.5498 91.9936 96.4972 91.9463L96.4814 91.9305C96.2685 91.7254 96.1265 91.4336 96.1107 91.189C95.8583 86.6453 95.874 77.8893 95.8898 74.3395C95.8898 74.1896 95.9293 74.0792 96.016 74.0082C96.0555 73.9688 96.0949 73.953 96.1501 73.9372C96.2132 73.9214 96.2448 73.9214 96.3079 73.9372C96.3079 73.9372 96.3079 73.9372 96.3158 73.9372C96.3579 73.9372 97.3045 74.4736 99.1556 75.5464L100.986 76.6114C101.285 76.7849 101.514 77.1872 101.514 77.5343C101.514 78.2995 101.514 84.5234 101.522 85.5489C101.546 89.3432 101.617 92.3092 101.735 94.3759C101.743 94.5416 101.696 94.6678 101.593 94.7309C101.546 94.7546 101.498 94.7703 101.443 94.7703V94.7625ZM96.2053 91.1733C96.2211 91.4257 96.3868 91.7018 96.5445 91.8517L96.5603 91.8674C96.6234 91.9384 96.6471 91.9463 98.6586 93.1059C99.2976 93.4767 100.134 93.9578 101.23 94.5889C101.349 94.6599 101.459 94.6757 101.538 94.6284C101.609 94.5889 101.64 94.4943 101.633 94.3602C101.514 92.2934 101.443 89.3195 101.42 85.5331C101.42 84.4997 101.404 78.2837 101.412 77.5106C101.412 77.203 101.199 76.8243 100.93 76.6745L99.1004 75.6095C96.5524 74.1344 96.3394 74.0161 96.3 74.0082C96.3 74.0082 96.2842 74.0082 96.2763 74.0082C96.2211 73.9924 96.2053 73.9924 96.158 74.0082C96.1186 74.0161 96.0949 74.024 96.0712 74.0555C96.0081 74.1107 95.9766 74.1975 95.9766 74.3158C95.9608 77.8656 95.945 86.6138 96.1975 91.1575L96.2053 91.1733Z" fill="#102844"/>
<path d="M69.1482 66.8772C69.164 69.5277 69.2113 73.0459 69.3612 75.7042C69.377 76.0277 69.6294 76.4063 69.9055 76.5641C74.7884 79.3802 74.4807 79.2224 74.5991 79.2382C74.6779 79.2461 74.7647 79.2382 74.8199 79.1672C75.0329 78.9306 74.6779 79.3329 74.6701 66.112C74.6701 65.473 74.6701 62.6963 74.6701 62.0495C74.6701 61.7734 74.5202 61.4736 74.323 61.2843C74.1968 61.1581 74.5202 61.3711 69.6531 58.5628C69.377 58.4051 69.1482 58.5313 69.1403 58.8547C69.1403 59.6357 69.1403 65.8832 69.1482 66.8693V66.8772ZM68.667 56.9457C70.1895 57.8292 72.1063 58.9336 74.5123 60.3219C75.0803 60.6454 75.5141 61.4421 75.5141 62.081C75.5141 62.3808 75.4983 74.2133 75.6798 78.3232C75.6877 78.6072 75.7192 79.2224 75.7665 79.9403C75.8612 81.4154 76.0426 83.3481 76.3897 83.7898C74.0942 82.4646 71.8066 81.1393 69.5111 79.822C68.8406 78.9464 68.7301 72.3044 68.7065 71.2237C68.6591 69.0544 68.6512 57.2455 68.6512 56.9694L68.667 56.9378V56.9457Z" fill="#95AAF4"/>
<path d="M76.3581 83.8371L69.4716 79.8614C68.9352 79.1593 68.7301 74.8759 68.6591 71.4129V71.2315C68.6118 69.149 68.596 57.4505 68.6039 56.9772V56.9615L68.6512 56.8747L68.6906 56.8984C70.2131 57.7818 72.13 58.8862 74.5359 60.2746C75.1039 60.6059 75.5614 61.4105 75.5614 62.081C75.5614 62.1914 75.5456 74.1817 75.7271 78.3152C75.7349 78.5519 75.7665 79.183 75.8138 79.9324C75.9558 82.0938 76.1609 83.419 76.4212 83.7582L76.3581 83.8292V83.8371ZM69.5347 79.7904L76.2477 83.6635C76.0189 83.1587 75.8375 81.9044 75.7113 79.9481C75.6639 79.1987 75.6403 78.5677 75.6245 78.331C75.4431 74.1975 75.4588 62.1993 75.4588 62.0889C75.4588 61.4578 75.025 60.6848 74.4807 60.3692C72.1063 58.9967 70.2052 57.9002 68.6827 57.0246C68.6827 57.8923 68.6906 69.1884 68.738 71.2394V71.4208C68.8721 77.629 69.2349 79.4038 69.5268 79.7982L69.5347 79.7904ZM74.6385 79.2855C74.6385 79.2855 74.6069 79.2855 74.5832 79.2855H74.5675C74.5149 79.2803 73.8233 78.8911 72.4928 78.118C71.846 77.7473 70.994 77.2503 69.866 76.6035C69.5662 76.4299 69.3217 76.0355 69.298 75.7042C69.1797 73.6059 69.1087 70.632 69.0851 66.8771C69.0851 65.828 69.0693 59.6119 69.0772 58.8547C69.0772 58.6811 69.1403 58.547 69.2507 58.4839C69.3611 58.4208 69.5031 58.4366 69.653 58.5234C71.42 59.5488 72.5007 60.1641 73.1712 60.5507C73.8917 60.9661 74.273 61.1949 74.315 61.2369L74.3308 61.2527C74.5517 61.4578 74.6937 61.7812 74.6937 62.0494C74.6937 62.6884 74.6937 65.4336 74.6937 66.112C74.6937 74.4026 74.8436 77.3213 74.8909 78.4257C74.9119 78.8727 74.8935 79.1304 74.8357 79.1987C74.7883 79.254 74.7095 79.2855 74.6227 79.2855H74.6385ZM69.4243 58.5391C69.3848 58.5391 69.3454 58.547 69.3138 58.5628C69.2349 58.6101 69.1876 58.7127 69.1876 58.8547C69.1876 59.6041 69.1876 65.8201 69.1955 66.8692C69.2192 70.6241 69.2902 73.598 69.4085 75.6963C69.4243 75.9961 69.6609 76.3589 69.9291 76.5167C71.0571 77.1714 71.9091 77.6605 72.5559 78.0313C74.4255 79.112 74.5359 79.1751 74.5911 79.183H74.6069C74.6463 79.183 74.7331 79.183 74.7804 79.1277C74.8225 79.0804 74.833 78.8438 74.812 78.4178C74.7568 77.3134 74.6148 74.3868 74.6148 66.0962C74.6148 65.4178 74.6148 62.6805 74.6148 62.0337C74.6148 61.7891 74.4807 61.4973 74.2835 61.3079L74.2677 61.2922C74.2125 61.2369 74.2046 61.2369 73.1397 60.6217C72.4692 60.2351 71.3885 59.6119 69.6215 58.5943C69.5505 58.5549 69.4795 58.5312 69.4164 58.5312L69.4243 58.5391Z" fill="#102844"/>
<path d="M62.8138 71.9256C62.8296 72.1781 62.9874 72.462 63.1688 72.6435C63.295 72.7697 62.9953 72.5804 67.8703 75.3965C67.9255 75.4281 67.9649 75.4438 68.0201 75.4596C68.0754 75.4754 68.1069 75.4754 68.1542 75.4596C68.2016 75.4517 68.2252 75.436 68.2568 75.4044C68.5329 75.1441 68.0359 75.7121 68.1227 58.2709C68.1227 57.9396 67.8939 57.5452 67.6178 57.3874C62.6876 54.5397 63.0663 54.7448 62.9479 54.7211C62.8848 54.7054 62.8612 54.7054 62.8138 54.7211C62.7665 54.729 62.7428 54.7448 62.7034 54.7764C62.6324 54.8395 62.593 54.942 62.593 55.0761C62.5693 59.533 62.5693 67.5949 62.8138 71.9256ZM62.2538 53.4196C62.3721 53.4038 62.522 53.4196 62.6797 53.4906C62.7428 53.5221 62.2616 53.2381 68.6749 56.9457L68.6591 56.9772C68.6591 57.2454 68.6591 69.0622 68.7143 71.2315C68.738 72.3043 68.8405 78.9542 69.5189 79.8298C67.2234 78.5045 64.9358 77.1793 62.6403 75.8619C62.38 75.5227 62.238 74.371 62.1906 73.9372C62.1275 73.3771 62.0723 72.7224 62.025 72.0045C61.8357 69.1016 61.7962 65.2048 61.7805 62.9171C61.7726 61.4184 61.7726 54.6738 61.7805 54.1453C61.7805 54.0112 61.7962 53.8929 61.8357 53.7903C61.8751 53.6878 61.9461 53.5931 62.0092 53.5379C62.0723 53.4827 62.1828 53.4353 62.2695 53.4275L62.2538 53.4196Z" fill="#95AAF4"/>
<path d="M69.4795 79.8693C67.184 78.5441 64.8964 77.2188 62.6008 75.9015L62.5851 75.8857C62.3957 75.6411 62.2459 74.9864 62.1275 73.9373C62.0644 73.4087 62.0092 72.7619 61.9619 72.0046C61.7805 69.1727 61.7331 65.4652 61.7173 62.9172C61.7095 61.4421 61.7095 54.666 61.7173 54.1375C61.7173 53.9876 61.741 53.8693 61.7805 53.7588C61.8278 53.6484 61.8988 53.5459 61.9698 53.4828C62.0408 53.4275 62.1591 53.3723 62.2538 53.3565C62.3879 53.3408 62.5456 53.3644 62.7034 53.4354C62.7034 53.4354 64.7018 54.5871 68.6985 56.8905L68.738 56.9142L68.6985 56.9773C68.6985 57.6163 68.7064 69.149 68.7538 71.2158V71.3972C68.8879 77.6448 69.2586 79.4039 69.5505 79.7825L69.4874 79.8535L69.4795 79.8693ZM62.6561 75.8226C64.8964 77.1163 67.1366 78.41 69.3691 79.7036C68.8957 78.6624 68.7143 74.6867 68.6512 71.4209V71.2394C68.6039 69.1569 68.5881 57.4585 68.596 56.9852V56.9694C63.1925 53.8456 62.6955 53.5616 62.6639 53.5459C62.6639 53.5459 62.6639 53.5459 62.6482 53.5459C62.5141 53.4827 62.3721 53.4591 62.2538 53.4749C62.1749 53.4828 62.0802 53.5301 62.0171 53.5774C61.954 53.6326 61.8909 53.7194 61.8514 53.8141C61.812 53.9087 61.7962 54.0113 61.7962 54.1533C61.7962 54.6739 61.7962 61.45 61.7962 62.9251C61.812 65.473 61.8593 69.1806 62.0408 72.0046C62.0881 72.754 62.1433 73.4087 62.2064 73.9294C62.3484 75.1915 62.522 75.6569 62.6403 75.8226H62.6561ZM68.099 75.5149C68.099 75.5149 68.0517 75.5149 68.0123 75.4991C67.9491 75.4834 67.9097 75.4676 67.8466 75.4282C66.8211 74.8365 66.0323 74.379 65.4091 74.024C63.9524 73.1879 63.2004 72.7409 63.153 72.683L63.1372 72.6672C62.9243 72.4621 62.7823 72.1703 62.7665 71.9178C62.522 67.5319 62.522 59.4779 62.5456 55.0683C62.5456 54.9184 62.5851 54.808 62.6718 54.737C62.7113 54.6976 62.7507 54.6818 62.8059 54.666C62.8612 54.6502 62.8927 54.6502 62.9637 54.666C62.9637 54.666 62.9716 54.666 62.9795 54.666C63.0215 54.666 63.5869 54.9842 64.6755 55.6205C65.346 56.007 66.3005 56.5592 67.6415 57.3402C67.9334 57.5058 68.17 57.9239 68.17 58.2631C68.1148 69.4961 68.3041 73.322 68.3672 74.5762C68.3935 75.0706 68.3699 75.3519 68.2962 75.4203C68.2568 75.4597 68.2173 75.4755 68.1621 75.4913C68.1385 75.4913 68.1148 75.4991 68.099 75.4991V75.5149ZM62.8612 71.9178C62.8769 72.1782 63.0426 72.4464 63.2004 72.6041L63.2161 72.6199C63.2871 72.6909 63.3029 72.6988 65.4564 73.9451C66.0717 74.3001 66.8684 74.7576 67.8939 75.3493C67.9491 75.3808 67.9807 75.3966 68.0359 75.4045C68.0911 75.4203 68.1069 75.4203 68.1464 75.4045C68.1858 75.3966 68.2016 75.3887 68.2252 75.365C68.2831 75.3125 68.2989 75.0548 68.2726 74.592C68.2095 73.3299 68.0201 69.504 68.0754 58.271C68.0754 57.9633 67.8624 57.5847 67.5942 57.4348C66.2453 56.6539 65.2987 56.1096 64.6281 55.7152C63.0978 54.8317 63.0031 54.7764 62.9637 54.7686C62.9637 54.7686 62.9479 54.7686 62.94 54.7686C62.8848 54.7607 62.869 54.7607 62.8217 54.7686C62.7823 54.7764 62.7665 54.7843 62.7349 54.8159C62.6718 54.8711 62.6403 54.9579 62.6403 55.0762C62.6245 58.626 62.6087 67.3741 62.8612 71.9178Z" fill="#102844"/>
<path d="M133.699 62.5623C133.549 62.4834 133.383 62.4361 133.194 62.4045C132.72 62.5465 132.089 62.791 131.316 63.146L77.3284 32.0028C78.1172 31.6478 78.7562 31.3954 79.2373 31.2534L79.7816 31.4427C97.7513 41.8159 115.729 52.197 133.699 62.5702V62.5623Z" fill="#D7CDCA"/>
<path d="M98.201 60.4876C97.7986 60.7164 97.2701 60.7953 96.7968 60.7558C96.1184 60.7006 95.5899 60.4403 94.9983 60.1011L83.3472 53.3723C82.9606 53.1435 82.582 52.9227 82.1955 52.6387C81.7774 52.3232 81.0911 51.7236 81.2094 51.2109C81.2489 51.0452 81.3514 50.9269 81.5013 50.848C82.7319 50.8007 84.2859 50.8796 85.3587 51.5028L95.6372 57.4348C96.7179 58.058 97.6014 59.4069 98.2088 60.4955L98.201 60.4876Z" fill="#6687FC"/>
<path d="M95.0378 43.362C96.3315 43.3462 97.7908 43.4566 98.9188 44.0956C102.342 46.0756 105.766 48.0555 109.197 50.0355C110.026 50.5167 110.696 51.3292 111.225 52.1259C111.398 52.6781 110.87 53.1751 110.87 53.1751C110.262 52.0865 109.379 50.7376 108.298 50.1144L98.0196 44.1824C96.9546 43.5671 95.3927 43.4882 94.17 43.5355C94.4146 43.3935 94.738 43.362 95.0378 43.362Z" fill="#95AAF4"/>
<path d="M81.5014 50.848L94.1701 43.5355C95.4007 43.4882 96.9547 43.5671 98.0196 44.1824L108.298 50.1144C109.371 50.7376 110.262 52.0786 110.87 53.1751L98.2011 60.4876C97.6016 59.399 96.7102 58.0501 95.6295 57.4269L85.3509 51.4949C84.286 50.8796 82.732 50.8007 81.4935 50.8401L81.5014 50.848Z" fill="#95AAF4"/>
<path d="M40.6713 27.2618C40.269 27.4906 39.7405 27.5695 39.2672 27.53C38.5888 27.4748 38.0602 27.2145 37.4686 26.8753L25.8175 20.1465C25.431 19.9178 25.0523 19.6969 24.6658 19.4129C24.2477 19.0974 23.5614 18.4979 23.6798 17.9851C23.7192 17.8195 23.8218 17.7012 23.9716 17.6223C25.2022 17.5749 26.7562 17.6538 27.829 18.277L38.1076 24.209C39.1883 24.8322 40.0718 26.1811 40.6792 27.2697L40.6713 27.2618Z" fill="#6687FC"/>
<path d="M37.5081 10.1362C38.8018 10.1204 40.2611 10.2309 41.3892 10.8698C44.8127 12.8498 48.2363 14.8298 51.6677 16.8098C52.496 17.2909 53.1665 18.1034 53.695 18.9002C53.8685 19.4524 53.34 19.9493 53.34 19.9493C52.7326 18.8607 51.8491 17.5118 50.7684 16.8886L40.4899 10.9566C39.425 10.3413 37.8631 10.2624 36.6404 10.3097C36.8849 10.1678 37.2083 10.1362 37.5081 10.1362Z" fill="#95AAF4"/>
<path d="M23.9794 17.6222L36.6481 10.3097C37.8787 10.2624 39.4327 10.3413 40.4977 10.9566L50.7762 16.8886C51.849 17.5118 52.7404 18.8528 53.3478 19.9493L40.6791 27.2618C40.0796 26.1732 39.1882 24.8243 38.1075 24.2011L27.829 18.2691C26.764 17.6538 25.21 17.5749 23.9716 17.6144L23.9794 17.6222Z" fill="#95AAF4"/>
<path d="M154.066 76.9821C155.1 76.4536 156.149 76.3984 157.19 76.9979C160.614 78.9779 164.045 80.95 167.469 82.93C168.415 83.49 169.575 84.7127 170.324 85.5489C170.324 85.5568 170.34 85.5647 170.348 85.5726C170.529 85.7777 170.695 86.0301 170.719 86.2746C170.742 86.5113 170.624 86.7006 170.419 86.811C169.528 85.754 167.761 83.703 166.569 83.0089L156.291 77.0768C155.557 76.6508 154.816 76.6114 154.066 76.9743V76.9821Z" fill="#95AAF4"/>
<path d="M141.24 84.3735C145.444 81.9439 149.657 79.5143 153.869 77.0847C153.901 77.0689 153.924 77.0531 153.956 77.0373C153.988 77.0216 154.011 77.0058 154.043 76.99C154.043 76.99 154.059 76.99 154.066 76.9821C154.816 76.6193 155.557 76.6587 156.291 77.0847L166.569 83.0167C167.761 83.703 169.535 85.754 170.419 86.8189L157.758 94.1314C156.867 93.0744 155.092 91.0155 153.901 90.3292L143.622 84.3972C142.826 83.9397 142.029 83.9318 141.232 84.3814L141.24 84.3735Z" fill="#95AAF4"/>
<path d="M141.24 84.3736C142.036 83.9239 142.833 83.9318 143.63 84.3894L153.908 90.3214C155.1 91.0077 156.874 93.0587 157.766 94.1236C157.577 94.2261 157.348 94.2735 157.135 94.2892C156.338 94.3445 155.391 94.0447 154.658 93.7213C154.161 93.5004 153.806 93.2953 153.388 93.0587L141.737 86.3299C141.334 86.0932 140.719 85.7462 140.609 85.2886C140.522 84.9415 140.759 84.6576 141.074 84.4761C141.121 84.4446 141.177 84.413 141.224 84.3894C141.232 84.3894 141.248 84.3736 141.256 84.3736H141.24Z" fill="#6687FC"/>
<path d="M112.432 53.7273L111.319 54.3741L95.9844 50.6824L97.0966 50.0355L112.432 53.7273Z" fill="#102844"/>
<path d="M111.319 54.3742L111.461 55.021L96.1264 51.3293L95.9844 50.6824L111.319 54.3742Z" fill="#102844"/>
<path d="M111.264 52.6545C111.28 52.5125 111.264 52.3705 111.225 52.2206C111.177 52.0392 111.083 51.8656 110.972 51.7079L98.6428 33.967C98.698 33.8092 98.7454 33.6514 98.8006 33.5015L111.138 51.2503C111.225 51.3766 111.304 51.5107 111.351 51.6605C111.477 52.0313 111.446 52.3626 111.264 52.6624V52.6545Z" fill="#102844"/>
<path d="M110.42 55.2734C111.051 55.2734 111.627 55.0999 112.163 54.7922C112.629 54.524 113.039 54.1612 113.22 53.6563C113.173 53.8062 113.118 53.9561 113.071 54.098V54.1217C113.071 54.1217 113.071 54.1217 113.063 54.1217C112.881 54.6266 112.471 54.9894 112.006 55.2576C111.461 55.5732 110.878 55.7309 110.262 55.7388C109.797 55.7388 109.371 55.6599 108.961 55.5258C108.543 55.3838 108.156 55.1788 107.785 54.9263L86.8812 40.9166C86.9364 40.7588 86.9917 40.6011 87.039 40.4512L107.943 54.4609C108.314 54.7055 108.7 54.9184 109.119 55.0604C109.529 55.2024 109.955 55.2813 110.42 55.2734Z" fill="#102844"/>
<path d="M104.575 33.6672L104.417 34.1326C102.114 33.541 100.899 33.3595 99.9128 33.5331L99.6525 33.1623C100.733 32.8468 101.932 32.9809 104.583 33.6672H104.575Z" fill="#102844"/>
<path d="M107.975 53.2934C108.874 53.7588 109.742 53.7509 110.57 53.2697C110.886 53.0883 111.114 52.8832 111.256 52.6544C111.438 52.3547 111.469 52.0234 111.343 51.6526C111.296 51.5106 111.217 51.3686 111.13 51.2424L98.7927 33.4936C98.4141 33.675 98.0117 33.9117 97.5306 34.1878C95.2429 35.5051 88.0172 39.686 87.678 39.9068L87.9856 40.1119L107.975 53.2855V53.2934ZM86.4553 41.5161C86.3133 42.1156 86.337 42.9202 86.4711 44.1192L85.0196 43.9062C84.9171 42.9912 84.8145 41.8237 85.0433 40.9323C85.0591 40.8613 85.0827 40.7982 85.0985 40.7351C85.0985 40.7272 85.0985 40.7193 85.1064 40.7114C85.4771 39.6071 86.3606 39.0549 87.4413 38.4238C87.6386 38.3055 96.6944 33.0755 96.8995 32.9651C97.6883 32.5154 98.4062 32.1368 99.2818 31.9554C100.339 31.7424 101.435 31.8765 102.5 32.0737C103.131 32.192 103.833 32.3577 104.654 32.5707L104.575 33.6671C101.924 32.9887 100.733 32.8468 99.6446 33.1623L99.905 33.533L112.818 51.7394C112.992 51.9839 113.134 52.2521 113.22 52.5361C113.331 52.899 113.347 53.2697 113.22 53.6484C113.039 54.1532 112.629 54.5161 112.163 54.7843C111.627 55.0919 111.051 55.2576 110.42 55.2655C109.955 55.2655 109.529 55.1866 109.119 55.0525C108.7 54.9105 108.306 54.6975 107.943 54.453L87.039 40.4432C86.7551 40.743 86.5657 41.0743 86.4632 41.5082L86.4553 41.5161Z" fill="#425082"/>
<path d="M87.6858 39.9148C88.0171 39.686 95.2507 35.5131 97.5384 34.1957C98.0195 33.9196 98.4218 33.683 98.8005 33.5015C98.7453 33.6593 98.6979 33.8171 98.6427 33.967C98.2799 34.1405 97.8933 34.3693 97.4358 34.6375C95.2428 35.8996 88.3169 39.899 87.9934 40.1199L87.6858 39.9148Z" fill="#102844"/>
<path d="M86.8733 40.9166C86.6997 41.098 86.5577 41.2952 86.4552 41.5161C86.5577 41.0744 86.7471 40.7431 87.0311 40.4512C86.9758 40.609 86.9285 40.7667 86.8733 40.9166Z" fill="#102844"/>
<path d="M86.471 44.1192L86.3133 44.5846L84.8618 44.3716L85.0196 43.9062L86.471 44.1192Z" fill="#102844"/>
<path d="M84.8618 44.3717C84.7514 43.3935 84.633 42.1077 84.9486 41.1769C84.9959 41.027 85.0511 40.8771 85.0985 40.7351C85.0748 40.7983 85.059 40.8693 85.0432 40.9324C84.8145 41.8237 84.917 42.9833 85.0196 43.9063L84.8618 44.3717Z" fill="#102844"/>
<path style="mix-blend-mode:screen" opacity="0.6" d="M192.569 122.806C192.569 122.908 192.522 123.011 192.451 123.09C192.42 123.121 192.451 123.113 192.262 123.232C191.82 123.5 190.227 124.415 184.121 127.941C185.146 122.364 185.833 115.951 186.282 110.168C187.868 109.253 189.453 108.33 191.039 107.415C191.252 107.289 191.37 107.108 191.347 106.918C192.009 112.164 192.569 117.718 192.577 122.798L192.569 122.806Z" fill="url(#paint0_linear_170_126)"/>
<path d="M178.71 131.12V131.041C178.694 128.193 178.142 125.133 177.716 123.074C177.29 120.999 176.73 118.641 176.043 116.061L176.028 115.998H176.075C179.491 114.034 182.914 112.062 186.251 110.129C187.836 109.214 189.422 108.299 191 107.376H191.008C191.205 107.258 191.315 107.092 191.292 106.926V106.871H191.378V106.911C191.954 111.423 192.609 117.307 192.609 122.798V122.845C192.593 122.94 192.554 123.034 192.475 123.121C192.475 123.121 192.475 123.129 192.467 123.137C192.451 123.161 192.427 123.184 192.278 123.279C191.938 123.484 190.944 124.06 187.647 125.961L184.137 127.988C183.269 128.493 182.307 129.045 181.242 129.661L178.71 131.12ZM176.146 116.069C176.832 118.641 177.392 120.991 177.81 123.05C178.228 125.093 178.781 128.122 178.804 130.954L181.194 129.574C182.259 128.959 183.214 128.406 184.089 127.901L187.6 125.874C190.897 123.973 191.891 123.405 192.222 123.192C192.372 123.105 192.38 123.09 192.388 123.074C192.388 123.074 192.396 123.058 192.404 123.05C192.475 122.971 192.514 122.884 192.514 122.798V122.75C192.514 117.386 191.883 111.651 191.323 107.195C191.268 107.289 191.181 107.376 191.055 107.447H191.047C189.461 108.37 187.876 109.285 186.29 110.208C182.961 112.133 179.546 114.105 176.138 116.061L176.146 116.069Z" fill="#091B32"/>
<defs>
<linearGradient id="paint0_linear_170_126" x1="186.984" y1="107.478" x2="188.491" y2="125.377" gradientUnits="userSpaceOnUse">
<stop stop-color="white"/>
<stop offset="1"/>
</linearGradient>
</defs>
</svg>
